<?xml version="1.0" encoding="utf-8"?>
<!-- Generator: Adobe Illustrator 16.0.0, SVG Export Plug-In . SVG Version: 6.00 Build 0)  -->
<!DOCTYPE svg PUBLIC "-//W3C//DTD SVG 1.1//EN" "http://www.w3.org/Graphics/SVG/1.1/DTD/svg11.dtd">
<svg version="1.1" id="snort" xmlns="http://www.w3.org/2000/svg" xmlns:xlink="http://www.w3.org/1999/xlink" x="0px" y="0px"
	 width="201.75px" height="111.75px" viewBox="0 0 201.75 111.75" enable-background="new 0 0 201.75 111.75" xml:space="preserve">
<g>
	<path fill="#FFFFFF" stroke="#FFFFFF" stroke-width="2" stroke-miterlimit="10" d="M189.482,80.319h-17.694
		c-0.479,0-0.908,0.301-1.071,0.75l-0.508,1.396c-0.673-0.893-1.655-1.496-2.906-1.745c-1.348-0.27-3.909-0.4-7.83-0.4h-5.72
		c-0.479,0-0.908,0.301-1.071,0.75l-1.19,3.271c-0.098-0.4-0.224-0.793-0.414-1.171c-0.595-1.182-1.616-2.068-3.034-2.639
		c-1.287-0.52-2.857-0.781-4.662-0.781c-1.871,0-3.634,0.268-5.242,0.795c-1.627,0.535-3.07,1.316-4.287,2.326
		c-0.338,0.28-0.648,0.571-0.941,0.87l0.688-1.89c0.127-0.35,0.076-0.74-0.137-1.045c-0.215-0.305-0.562-0.486-0.936-0.486h-6.766
		c-0.479,0-0.908,0.301-1.072,0.75c0,0-1.123,3.086-2.244,6.166c-0.049-2.895-0.096-5.795-0.096-5.795
		c-0.011-0.623-0.519-1.121-1.141-1.121h-6.723c-0.48,0-0.908,0.301-1.072,0.75l-0.918,2.524c-0.275-1.193-1.194-2.16-2.745-2.872
		c-1.325-0.604-3.057-0.92-5.125-0.958c6.952-6.908,12.828-15.049,18.212-24.858c2.465-4.49,7.59-13.529,4.121-19.081
		c-1.735-2.775-6.593-4.033-10.409-3.34c-14.088,3.25-33.022-1.239-38.109-4.167c-0.347,0,0.763-2.768,0.069-3.809
		c1.04-0.693,1.398-1.16,2.786-0.813c2.429,1.04,5.368,0.608,7.796,0.262c-1.393-2.787-2.857-8.15-4.938-11.272
		c-2.082,1.734-5.259,3.055-7.341,4.443C72.975,6.766,59.989,4.881,49.494,10.887c-0.301,0.173-0.585,0.13-0.585,0.13
		s-2.819-5.985-4.033-8.761c-3.752,2.234-7.026,5.248-8.479,5.248c-2.819,0-6.244-0.022-9.021-0.369
		c0,4.857,1.865,10.452,2.082,14.594c-4.163,4.163-8.326,8.327-11.103,13.53c-3.079-0.715-6.477-1.19-9.628,0.131
		c-2.017,0.846-4.357,3.368-3.556,6.114c0.455,1.562,2.428,3.188,6.244,4.164c-7.48,7.242-11.254,22.245-4.51,27.404
		c-1.734,1.734-3.777,3.369-4.38,5.617c-0.803,2.992,0.915,4.07,2.992,4.445c3.838,0.693,6.636-1.193,9.411-2.928
		c5.984,3.557,10.04,3.297,16.957,3.621c0.693,0.033,2.32,2.082,2.32,2.082s-4.672-0.531-7.091,0.195
		c-3.253,0.975-6.088,4.037-3.838,6.678c3.36,3.947,9.801,5.4,15.634,3.947c3.535,3.795,1.887,9.953-4.055,12.426
		c5.204-0.348,11.211-3.816,11.84-11.016c0.121-1.383-0.673-3.557-1.713-4.598c-0.694-0.693-1.648-1.734-1.648-1.734
		s2.926-5.568-3.122-8.674c2.404-0.482,6.938-2.43,6.938-2.43s1.836,2.143,3.47,2.43c1.742,0.305,3.84-0.686,4.511-2.43
		c0.98-2.553-2.082-4.51-2.082-4.51l2.429-3.816c0,0,2.095,1.982,3.047,3.574c2.964,4.957,3.545,9.957,6.32,14.814
		c1.388,2.428,3.838,4.424,6.267,5.465c2.082,0.693,4.359,0.824,6.701,0.412c3.923-0.691,7.004-1.996,9.259-3.34
		c1.341-0.8,2.635-1.628,3.909-2.471c-0.017,0.19-0.033,0.38-0.033,0.559c0,0.201,0.01,0.396,0.031,0.584
		c0.123,1.148,0.504,2.084,1.133,2.779c0.521,0.576,1.582,1.43,3.229,2.598c-1.874,0-6.071,0-6.071,0
		c-0.479,0-0.908,0.301-1.072,0.75l-0.635,1.746c-0.706,1.939-1.052,3.477-1.052,4.682c0,0.143,0.005,0.281,0.015,0.416
		c0.107,1.49,0.99,2.701,2.622,3.6c1.441,0.793,3.365,1.195,5.717,1.195c2.097,0,4.085-0.33,5.91-0.979
		c1.247-0.443,2.283-0.979,3.136-1.587l-0.169,0.464c-0.128,0.35-0.076,0.74,0.137,1.045c0.214,0.305,0.562,0.486,0.935,0.486h6.766
		c0.479,0,0.907-0.301,1.072-0.752c0,0,1.042-2.861,2.077-5.707c-0.041,2.609-0.084,5.311-0.084,5.318
		c0,0.299,0.118,0.586,0.328,0.799c0.215,0.219,0.508,0.342,0.812,0.342h7.07c0.479,0,0.908-0.301,1.072-0.752l1.231-3.385
		c0.098,0.44,0.229,0.872,0.438,1.287c0.596,1.182,1.617,2.07,3.035,2.639c1.287,0.518,2.857,0.781,4.662,0.781
		c1.87,0,3.633-0.268,5.24-0.797c1.63-0.535,3.072-1.316,4.289-2.324c0.295-0.245,0.572-0.498,0.833-0.757l-0.646,1.776
		c-0.128,0.35-0.075,0.74,0.138,1.045s0.562,0.486,0.934,0.486h8.066c0.48,0,0.908-0.301,1.072-0.75c0,0,3.194-8.777,3.914-10.756
		c-0.08,0.287-0.188,0.639-0.372,1.145l-3.214,8.83c-0.046,0.127-0.068,0.258-0.068,0.391c0,0.23,0.07,0.459,0.205,0.654
		c0.215,0.305,0.562,0.486,0.936,0.486h7.502c0.48,0,0.908-0.301,1.072-0.752l2.553-7.014c1.084-2.977,1.262-3.822,1.295-4.229
		c0.007-0.078,0.01-0.158,0.01-0.24c0-0.645-0.209-1.32-0.625-2.01c-0.085-0.141-0.209-0.262-0.324-0.387
		c0.51-0.221,0.979-0.473,1.361-0.789c1.028-0.85,1.933-2.373,2.764-4.654c0.146-0.403,0.272-0.788,0.381-1.158
		c0.634,0,1.555,0,2.377,0c-0.959,2.637-7.17,19.701-7.17,19.701c-0.047,0.127-0.068,0.258-0.068,0.391
		c0,0.23,0.069,0.459,0.205,0.654c0.215,0.305,0.562,0.486,0.936,0.486h8.065c0.479,0,0.908-0.301,1.071-0.752
		c0,0,6.947-19.084,7.455-20.48c1.115,0,4.059,0,4.059,0c0.48,0,0.908-0.301,1.072-0.752l1.943-5.338
		c0.047-0.127,0.068-0.26,0.068-0.391c0-0.23-0.07-0.461-0.205-0.654C190.203,80.501,189.855,80.319,189.482,80.319z
		 M108.268,95.207c-0.013-0.03-0.017-0.066-0.029-0.097c-0.559-1.287-2.136-2.734-4.801-4.48c1.171,0,5.569,0,6.495,0
		L108.268,95.207z M160.816,87.671l-0.528,1.451c-0.124,0.344-0.233,0.592-0.332,0.793c0.474-1.299,0.751-2.062,0.983-2.699
		c0.004,0,0.01,0,0.013,0.002C160.928,87.329,160.891,87.468,160.816,87.671z"/>
	<path fill="#FFFFFF" stroke="#FFFFFF" stroke-width="2" stroke-miterlimit="10" d="M194.763,80.181
		c-2.174,0-3.912,1.748-3.912,3.913c0,2.164,1.738,3.912,3.912,3.912c2.165,0,3.913-1.748,3.913-3.912
		C198.676,81.929,196.928,80.181,194.763,80.181z"/>
</g>
<g>
	<g>
		<g>
			<g>
				<path fill="#F7A8AA" d="M126.957,35.825c-1.735-2.775-6.593-4.033-10.409-3.34c-14.088,3.25-33.022-1.239-38.109-4.167
					c-0.347,0,0.763-2.768,0.069-3.809c1.04-0.693,1.398-1.16,2.786-0.813c2.429,1.04,5.368,0.608,7.796,0.262
					c-1.393-2.787-2.857-8.15-4.938-11.272c-2.082,1.734-5.259,3.055-7.341,4.443C72.975,6.766,59.989,4.881,49.494,10.887
					c-0.301,0.173-0.585,0.13-0.585,0.13s-2.819-5.985-4.033-8.761c-3.752,2.234-7.026,5.248-8.479,5.248
					c-2.819,0-6.244-0.022-9.021-0.369c0,4.857,1.865,10.452,2.082,14.594c-4.163,4.163-8.326,8.327-11.103,13.53
					c-3.079-0.715-6.477-1.19-9.628,0.131c-2.017,0.846-4.357,3.368-3.556,6.114c0.455,1.562,2.428,3.188,6.244,4.164
					c-7.48,7.242-11.254,22.245-4.51,27.404c-1.734,1.734-3.777,3.369-4.38,5.617c-0.803,2.992,0.915,4.07,2.992,4.445
					c3.838,0.693,6.636-1.193,9.411-2.928c5.984,3.557,10.04,3.297,16.957,3.621c0.693,0.033,2.32,2.082,2.32,2.082
					s-4.672-0.531-7.091,0.195c-3.253,0.975-6.088,4.037-3.838,6.678c3.36,3.947,9.801,5.4,15.634,3.947
					c3.535,3.795,1.887,9.953-4.055,12.426c5.204-0.348,11.211-3.816,11.84-11.016c0.121-1.383-0.673-3.557-1.713-4.598
					c-0.694-0.693-1.648-1.734-1.648-1.734s2.926-5.568-3.122-8.674c2.404-0.482,6.938-2.43,6.938-2.43s1.836,2.143,3.47,2.43
					c1.742,0.305,3.84-0.686,4.511-2.43c0.98-2.553-2.082-4.51-2.082-4.51l2.429-3.816c0,0,2.095,1.982,3.047,3.574
					c2.964,4.957,3.545,9.957,6.32,14.814c1.388,2.428,3.838,4.424,6.267,5.465c2.082,0.693,4.359,0.824,6.701,0.412
					c3.923-0.691,7.004-1.996,9.259-3.34c15.507-9.242,26.374-21.295,35.763-38.399C125.301,50.416,130.426,41.376,126.957,35.825z
					 M82.889,15.138c0,0,0.923,1.614,1.388,2.775c0.693,1.735,2.041,5.051,2.041,5.051l-2.801-0.469l-2.622-1.877
					c0,0-0.372,1.38-1.822,2.499c-0.703-2.03,0.815-3.051-1.31-5.328C79.497,16.75,82.889,15.138,82.889,15.138z M44.724,98.228
					c0.637,3.701-2.66,7.459-4.915,8.904c1.966-3.064,3.874-4.395,1.619-10.697c-0.89-2.488-3.123-4.279-5.378-5.781
					c-0.693-0.463-1.652-0.775-2.718-1.041c-1.156-0.291-2.429,0.578-3.469,1.617c0,0,3.296,1.621,6.129,2.141
					c1.619,2.141-1.619,2.197-1.619,2.197c-0.347,0.346-9.396-0.912-8.789-5.318c0.231-1.68,3.643-4.916,10.466-2.256
					C39.819,89.462,44.13,94.771,44.724,98.228z M40.907,85.216c1.701,0.775,1.735,2.777,1.735,4.512
					c0,0.348-0.348,0.348-0.694,0.693c-1.099-1.908-2.833-2.834-4.511-4.162c-0.384-0.305-0.578-0.406-0.23-0.752
					C38.247,84.464,39.636,84.638,40.907,85.216z M53.552,79.284c-0.646,2.426-2.899,2.012-3.124,0.781
					c-0.197-1.078,1.122-1.4,1.589-1.93C52.395,78.333,53.642,78.95,53.552,79.284z M66.705,85.642
					c-3.729-11.232-14.139-21.509-19.19-24.46c-0.3-0.174-0.933,0.76-0.933,0.76s4.554,4.271,5.248,7.394
					c0.694,2.777-0.867,5.748-2.603,7.828c-6.938,6.594-16.35,5.291-25.283,4.662c-2.791-0.195-6.874-2.08-4.728-6.244
					c-3.123,2.428-7.98,6.961-11.493,5.551c-0.681-0.273-1.713-2.008-0.962-3.594c1.266-2.672,5.507-6.871,9.22-8.736
					c0.197-0.377-0.286-1.04-1.65-0.412c-1.409,0.648-4.204,3.35-5.327,2.797C2.672,68.075,6.729,56.44,8.808,52.6
					c2.583-4.771,5.875-5.622,9.345-6.663c-4.126-0.735-7.282-1.165-9.364-3.247c-1.04-1.388-0.544-2.471,0.497-3.859
					c1.041-1.04,2.229-1.755,3.701-2.186c1.386-0.405,2.607-0.239,3.964,0.054c3.408,0.735,3.593,2.464,5.327,2.117
					c-0.362-0.777-2.109-2.45-1.774-3.149c1.676-3.503,4.433-7.223,8.209-10.395c0.471-0.396,0.888-0.489,1.582-0.489
					c1.04,0.347,0.64,1.394,1.242,2.41c1.032,1.74,3.896,1.727,5.63,0.339c3.47-2.775,4.638-7.981,6.025-12.145
					c0-0.347,1.13-2.523-0.772-1.905c-0.922,3.807-2.429,6.939-4.511,10.408c-1.041,1.388-2.246,2.66-3.98,1.966
					c-0.347-0.347-1.073-0.539-1.224-1.618C32.011,19.264,30.99,9.965,30.99,9.965s4.832,0.64,6.646,0.226
					c1.073-0.245,3.483-3.101,5.913-4.142c1.734,2.428,3.351,4.726,4.857,7.117c6.938-3.123,15.09-5.637,22.029-0.433
					c2.429,2.082,5.008,4.674,5.831,6.995c0.625,1.757,1.019,6.1,0.552,9.405c5.898,3.122,11.73,4.884,18.335,6.207
					c2.943,0.59,5.168,0.832,8.047,1.061c1.426,0.113,4.746,0.582,11.388-0.583c-13.535,2.775-24.465,11.467-33.658,22.072
					C76.42,63.09,68.268,75.815,67.204,80.374C66.749,82.325,66.618,83.345,66.705,85.642z M122.1,51.221
					c-2.256,6.697-8.11,15.457-14.14,22.026c-5.601,6.102-21.521,20.73-32.722,20.111c-5.242-0.289-7.304-5.705-5.418-11.727
					C73.405,70.183,89.191,47,109.262,38.687c4.168-1.727,11.536-2.516,13.184-0.304C124.824,41.575,123.5,47.061,122.1,51.221z"/>
			</g>
		</g>
		<g>
			<g>
				<path fill="#F7A8AA" d="M126.957,35.825c-1.735-2.775-6.593-4.033-10.409-3.34c-14.088,3.25-33.022-1.239-38.109-4.167
					c-0.347,0,0.763-2.768,0.069-3.809c1.04-0.693,1.398-1.16,2.786-0.813c2.429,1.04,5.368,0.608,7.796,0.262
					c-1.393-2.787-2.857-8.15-4.938-11.272c-2.082,1.734-5.259,3.055-7.341,4.443C72.975,6.766,59.989,4.881,49.494,10.887
					c-0.301,0.173-0.585,0.13-0.585,0.13s-2.819-5.985-4.033-8.761c-3.752,2.234-7.026,5.248-8.479,5.248
					c-2.819,0-6.244-0.022-9.021-0.369c0,4.857,1.865,10.452,2.082,14.594c-4.163,4.163-8.326,8.327-11.103,13.53
					c-3.079-0.715-6.477-1.19-9.628,0.131c-2.017,0.846-4.357,3.368-3.556,6.114c0.455,1.562,2.428,3.188,6.244,4.164
					c-7.48,7.242-11.254,22.245-4.51,27.404c-1.734,1.734-3.777,3.369-4.38,5.617c-0.803,2.992,0.915,4.07,2.992,4.445
					c3.838,0.693,6.636-1.193,9.411-2.928c5.984,3.557,10.04,3.297,16.957,3.621c0.693,0.033,2.32,2.082,2.32,2.082
					s-4.672-0.531-7.091,0.195c-3.253,0.975-6.088,4.037-3.838,6.678c3.36,3.947,9.801,5.4,15.634,3.947
					c3.535,3.795,1.887,9.953-4.055,12.426c5.204-0.348,11.211-3.816,11.84-11.016c0.121-1.383-0.673-3.557-1.713-4.598
					c-0.694-0.693-1.648-1.734-1.648-1.734s2.926-5.568-3.122-8.674c2.404-0.482,6.938-2.43,6.938-2.43s1.836,2.143,3.47,2.43
					c1.742,0.305,3.84-0.686,4.511-2.43c0.98-2.553-2.082-4.51-2.082-4.51l2.429-3.816c0,0,2.095,1.982,3.047,3.574
					c2.964,4.957,3.545,9.957,6.32,14.814c1.388,2.428,3.838,4.424,6.267,5.465c2.082,0.693,4.359,0.824,6.701,0.412
					c3.923-0.691,7.004-1.996,9.259-3.34c15.507-9.242,26.374-21.295,35.763-38.4C125.301,50.416,130.426,41.376,126.957,35.825z
					 M122.1,51.221c-2.256,6.697-8.11,15.457-14.14,22.026c-5.601,6.102-21.521,20.73-32.722,20.111
					c-5.242-0.289-7.304-5.705-5.418-11.727C73.405,70.183,89.191,47,109.262,38.687c4.168-1.727,11.536-2.516,13.184-0.304
					C124.824,41.575,123.5,47.061,122.1,51.221z"/>
			</g>
		</g>
		<path fill="#FAC6C5" d="M70.86,93.413c5.266,5.768,23.165-2.191,37.097-18.646c13.795-16.298,20.502-33.295,16.539-38.073
			c-3.477-4.192-24.738,1.331-39.873,18.77C70.495,71.741,63.979,85.876,70.86,93.413z"/>
		<g>
			<path fill="#FCDDDB" d="M58.255,23.43c-0.815-2.038-1.311-5.963,0.425-6.657c1.202-0.172,2.021,0.195,2.599-0.397
				c0.59-0.605,0.863-1.763,2.181-2.314c4.162-1.74,9.021,0.694,10.756,4.511c1.734,3.816,1.673,9.216-2.144,10.95
				C67.214,31.605,60.337,28.634,58.255,23.43z"/>
			<path fill="#FCDDDB" d="M117.646,40.604c0-1.041-0.578-2.255,0.809-2.949c1.736-0.347,3.596,0.507,4.223,1.793
				c4.453,9.136-6.997,24.744-14.168,33.36c-6.344,7.619-15.387,14.631-25.101,19.141c-3.817,1.387-8.963,3.18-12.086-0.289
				c2.082-3.816,7.314-1.279,10.756-2.775c1.33-0.578,5.956-4.164,8.691-6.723c-0.693,1.389,11.202-7.734,16.408-15.021
				c3.818-4.857,7.345-9.48,9.774-14.683c0.693-1.387,2.602-0.867,3.295-2.255c0-0.347,0.752-1.156,0.059-1.156
				c-1.735,0-2.486,1.099-3.932,1.908c0-1.388,1.619-2.312,2.602-4.163c-0.348,0.347-0.752-1.099,0.058-2.834
				C118.803,42.455,117.646,42.686,117.646,40.604z"/>
			<path fill="#FCDDDB" d="M100.828,50.568c-8.282,7.145-16.021,17.644-21.346,27.847c-2.368,4.537-2.309,9.555-2.366,9.268
				c-2.775-4.51,0.71-12.131,2.303-14.643c8.246-13.011,20.066-29.429,34.585-29.95C109.492,44.131,104.193,47.664,100.828,50.568z"
				/>
		</g>
		<path fill="#F59298" d="M20.524,73.108c3.446-3.445,7.286-2.264,8.172-1.574c0.887,0.689,2.462,4.43,3.841,4.924
			c1.378,0.492,5.514,2.658,10.338,0.492c4.825-2.168,6.695-4.234,6.794-6.695c0.099-2.462,0.886-2.266-2.067-4.825
			c-2.954-2.561-3.15-2.068-4.727-3.348c-1.575-1.279-1.674-2.756-0.492-4.43c1.182-1.672,4.431-1.279,6.893,0.197
			c2.461,1.477,7.089,5.02,7.68,5.512s6.893,5.81,8.665,5.81c1.771,0,2.166,0.197,3.938-0.984c1.772-1.181,1.28-0.493,3.544-2.067
			c2.265-1.576,3.25-2.363,3.25-2.363l-4.628,9.157l-3.644,9.846l-1.182,4.137l-4.135-5.91l-1.97-4.725l-3.544-2.955l-2.265-2.264
			l-1.97,2.166l-3.053,5.021l-12.405,4.824l-8.566-0.197l-7.483-0.689l-4.037-3.348"/>
		<path fill="#F59298" d="M25.025,47.963c1.01,4.61-9.944,4.534-8.755,11.312c0.459,2.617,2.315,1.18,3.363,2.494
			c1.043,1.309,1.265,2.625,0.674,3.807s-1.545,2.143-2.363,2.362c-1.435,0.385-1.182-0.296-2.363,0.197
			c-1.182,0.492-1.772,1.182-1.772,1.182l-3.348,2.166l-1.477,1.082l-3.053-2.264l-1.477-3.644l0.591-7.088l1.575-5.413l2.855-4.922
			l2.757-2.658l3.741-0.493c0,0,1.665-0.271,3.841-0.295C23.024,45.753,24.686,46.414,25.025,47.963z"/>
		<path fill="#F59298" d="M20.899,37.423l8.038,7.46c0,0,1.272,1.329,2.718,1.561s2.833,0.579,4.048-2.081
			c1.214-2.66,0.982-4.164,1.099-5.493c0.115-1.331-0.058-3.701,0.115-5.378c0.174-1.677,0.926-3.181,1.908-3.99
			c0.983-0.81,1.157-1.793,3.238-3.181c2.082-1.388,2.66-1.966,3.47-3.064s0.983-4.105,0.868-4.857
			c-0.116-0.751,0.058-3.296-0.174-3.99c-0.231-0.694-0.521-1.793-1.157-1.909c-0.636-0.115-0.809,0-1.099,0.81
			c-0.289,0.81-1.156,2.255-1.156,2.255L42.18,16.78l-1.446,2.486l-1.33,2.775l-0.52,1.157l-1.908,2.371l-1.735,1.099l-1.792,0.347
			l-1.908-3.007l-1.677-0.405l-1.678,0.694l-3.989,4.452l-4.568,5.841l0.231,1.677"/>
		<g>
			<g>
				<path d="M126.957,35.825c-1.735-2.775-6.593-4.033-10.409-3.34c-14.088,3.25-33.022-1.239-38.109-4.167
					c-0.347,0,0.763-2.768,0.069-3.809c1.04-0.693,1.398-1.16,2.786-0.813c2.429,1.04,5.368,0.608,7.796,0.262
					c-1.393-2.787-2.857-8.15-4.938-11.272c-2.082,1.734-5.259,3.055-7.341,4.443C72.975,6.766,59.989,4.881,49.494,10.887
					c-0.301,0.173-0.585,0.13-0.585,0.13s-2.819-5.985-4.033-8.761c-3.752,2.234-7.026,5.248-8.479,5.248
					c-2.819,0-6.244-0.022-9.021-0.369c0,4.857,1.865,10.452,2.082,14.594c-4.163,4.163-8.326,8.327-11.103,13.53
					c-3.079-0.715-6.477-1.19-9.628,0.131c-2.017,0.846-4.357,3.368-3.556,6.114c0.455,1.562,2.428,3.188,6.244,4.164
					c-7.48,7.242-11.254,22.245-4.51,27.404c-1.734,1.734-3.777,3.369-4.38,5.617c-0.803,2.992,0.915,4.07,2.992,4.445
					c3.838,0.693,6.636-1.193,9.411-2.928c5.984,3.557,10.04,3.297,16.957,3.621c0.693,0.033,2.32,2.082,2.32,2.082
					s-4.672-0.531-7.091,0.195c-3.253,0.975-6.088,4.037-3.838,6.678c3.36,3.947,9.801,5.4,15.634,3.947
					c3.535,3.795,1.887,9.953-4.055,12.426c5.204-0.348,11.211-3.816,11.84-11.016c0.121-1.383-0.673-3.557-1.713-4.598
					c-0.694-0.693-1.648-1.734-1.648-1.734s2.926-5.568-3.122-8.674c2.404-0.482,6.938-2.43,6.938-2.43s1.836,2.143,3.47,2.43
					c1.742,0.305,3.84-0.686,4.511-2.43c0.98-2.553-2.082-4.51-2.082-4.51l2.429-3.816c0,0,2.095,1.982,3.047,3.574
					c2.964,4.957,3.545,9.957,6.32,14.814c1.388,2.428,3.838,4.424,6.267,5.465c2.082,0.693,4.359,0.824,6.701,0.412
					c3.923-0.691,7.004-1.996,9.259-3.34c15.507-9.242,26.374-21.295,35.763-38.399C125.301,50.416,130.426,41.376,126.957,35.825z
					 M82.889,15.138c0,0,0.923,1.614,1.388,2.775c0.693,1.735,2.041,5.051,2.041,5.051l-2.801-0.469l-2.622-1.877
					c0,0-0.372,1.38-1.822,2.499c-0.703-2.03,0.815-3.051-1.31-5.328C79.497,16.75,82.889,15.138,82.889,15.138z M44.724,98.228
					c0.637,3.701-2.66,7.459-4.915,8.904c1.966-3.064,3.874-4.395,1.619-10.697c-0.89-2.488-3.123-4.279-5.378-5.781
					c-0.693-0.463-1.652-0.775-2.718-1.041c-1.156-0.291-2.429,0.578-3.469,1.617c0,0,3.296,1.621,6.129,2.141
					c1.619,2.141-1.619,2.197-1.619,2.197c-0.347,0.346-9.396-0.912-8.789-5.318c0.231-1.68,3.643-4.916,10.466-2.256
					C39.819,89.462,44.13,94.771,44.724,98.228z M40.907,85.216c1.701,0.775,1.735,2.777,1.735,4.512
					c0,0.348-0.348,0.348-0.694,0.693c-1.099-1.908-2.833-2.834-4.511-4.162c-0.384-0.305-0.578-0.406-0.23-0.752
					C38.247,84.464,39.636,84.638,40.907,85.216z M53.552,79.284c-0.646,2.426-2.899,2.012-3.124,0.781
					c-0.197-1.078,1.122-1.4,1.589-1.93C52.395,78.333,53.642,78.95,53.552,79.284z M66.705,85.642
					c-3.729-11.232-14.139-21.509-19.19-24.46c-0.3-0.174-0.933,0.76-0.933,0.76s4.554,4.271,5.248,7.394
					c0.694,2.777-0.867,5.748-2.603,7.828c-6.938,6.594-16.35,5.291-25.283,4.662c-2.791-0.195-6.874-2.08-4.728-6.244
					c-3.123,2.428-7.98,6.961-11.493,5.551c-0.681-0.273-1.713-2.008-0.962-3.594c1.266-2.672,5.507-6.871,9.22-8.736
					c0.197-0.377-0.286-1.04-1.65-0.412c-1.409,0.648-4.204,3.35-5.327,2.797C2.672,68.075,6.729,56.44,8.808,52.6
					c2.583-4.771,5.875-5.622,9.345-6.663c-4.126-0.735-7.282-1.165-9.364-3.247c-1.04-1.388-0.544-2.471,0.497-3.859
					c1.041-1.04,2.229-1.755,3.701-2.186c1.386-0.405,2.607-0.239,3.964,0.054c3.408,0.735,3.593,2.464,5.327,2.117
					c-0.362-0.777-2.109-2.45-1.774-3.149c1.676-3.503,4.433-7.223,8.209-10.395c0.471-0.396,0.888-0.489,1.582-0.489
					c1.04,0.347,0.64,1.394,1.242,2.41c1.032,1.74,3.896,1.727,5.63,0.339c3.47-2.775,4.638-7.981,6.025-12.145
					c0-0.347,1.13-2.523-0.772-1.905c-0.922,3.807-2.429,6.939-4.511,10.408c-1.041,1.388-2.246,2.66-3.98,1.966
					c-0.347-0.347-1.073-0.539-1.224-1.618C32.011,19.264,30.99,9.965,30.99,9.965s4.832,0.64,6.646,0.226
					c1.073-0.245,3.483-3.101,5.913-4.142c1.734,2.428,3.351,4.726,4.857,7.117c6.938-3.123,15.09-5.637,22.029-0.433
					c2.429,2.082,5.008,4.674,5.831,6.995c0.625,1.757,1.019,6.1,0.552,9.405c5.898,3.122,11.73,4.884,18.335,6.207
					c2.943,0.59,5.168,0.832,8.047,1.061c1.426,0.113,4.746,0.582,11.388-0.583c-13.535,2.775-24.465,11.467-33.658,22.072
					C76.42,63.09,68.268,75.815,67.204,80.374C66.749,82.325,66.618,83.345,66.705,85.642z M122.1,51.221
					c-2.256,6.697-8.11,15.457-14.14,22.026c-5.601,6.102-21.521,20.73-32.722,20.111c-5.242-0.289-7.304-5.705-5.418-11.727
					C73.405,70.183,89.191,47,109.262,38.687c4.168-1.727,11.536-2.516,13.184-0.304C124.824,41.575,123.5,47.061,122.1,51.221z"/>
			</g>
		</g>
		<path d="M66.521,17c-2.78-2.744-6.733,6.751-7.815,3.355c2.285-2.285,4.873-6.25,8.327-5.625c4.244,0.769,0.859,6.477,3.056,8.124
			c0.681,0.512,1.481-2.379,2.635-1.189c-1.043,2.8-3.806,1.537-3.806,1.537s-0.915,4.281-2.216,3.246
			c-0.149-0.448,0.383-0.906,0.624-1.618c0.373-1.103,0.474-2.357-0.439-1.609c-0.611,0.502-1.457,1.738-0.951,3.348
			c0.083,0.264,1.317,0.659,0.513,1.152c-0.44,0.46-1.391-0.127-1.649-0.892c-0.865-2.55,1.356-5.64,3.332-4.926
			C67.563,20.532,67.671,18.135,66.521,17z"/>
		<g>
			<g>
				<path d="M74.318,24.925c0-0.381-0.381-1.143-1.143-0.762c-0.381,0.381-0.856,0.546-1.02,1.29
					c-0.164,0.75-0.856,1.781-0.476,2.543C73.204,28.757,74.699,26.449,74.318,24.925z M73.528,25.984
					c-0.055,0.658-0.146,0.585-0.457,1.098c-0.312,0.513-0.439,0.091-0.53-0.33c-0.092-0.42,0.091-0.53,0.292-1.207
					c0.172-0.578,0.341-0.507,0.423-0.514C73.639,24.996,73.583,25.325,73.528,25.984z"/>
			</g>
		</g>
		<path d="M91.562,60.238c6.076-7.423,15.212-16.201,22.443-17.323c-0.186,3.205-4.482,1.644-4.83,4.072
			c-0.348,1.388-1.373,2.131-2.322,3.883c-4.258,7.874-9.99,13.26-15.489,19.96c-10.147,12.361-12.625,9.586-14.065,16.256
			C76.409,78.95,85.317,67.869,91.562,60.238z"/>
		<path d="M103.709,62.318c2.877-3.729,9.514-10.794,16.453-13.223c0.81,1.027-2.74,2.159-2.92,2.472
			c-5.74,9.986-7.289,11.009-11.668,16.793c-8.287,10.943-14.215,12.244-15.4,17.578C89.957,79.665,98.279,69.354,103.709,62.318z"
			/>
		<path d="M41.785,71.46c-0.694-1.736,1.826-3.763,3.049-2.939C44.201,69.427,43.104,71.28,41.785,71.46z"/>
		<path fill="#FDB913" d="M110.115,89.487h-7.504l0.719-1.975c0.336-0.922,0.454-1.51,0.354-1.762s-0.377-0.379-0.825-0.379
			c-0.487,0-0.919,0.17-1.292,0.51c-0.375,0.34-0.686,0.854-0.938,1.543c-0.322,0.887-0.424,1.555-0.304,2.004
			c0.106,0.449,0.673,0.99,1.698,1.627c2.937,1.834,4.66,3.336,5.17,4.51s0.289,3.062-0.66,5.672
			c-0.689,1.896-1.459,3.293-2.305,4.191c-0.848,0.898-2.127,1.652-3.836,2.26c-1.709,0.609-3.553,0.914-5.527,0.914
			c-2.167,0-3.89-0.352-5.167-1.055c-1.277-0.701-1.956-1.596-2.034-2.684c-0.079-1.086,0.244-2.627,0.972-4.625l0.635-1.744h7.503
			l-1.186,3.258c-0.366,1.004-0.494,1.65-0.384,1.936c0.109,0.287,0.438,0.432,0.983,0.432s1.018-0.182,1.416-0.545
			c0.398-0.361,0.729-0.902,0.988-1.615c0.572-1.572,0.697-2.6,0.377-3.084c-0.333-0.482-1.303-1.287-2.908-2.41
			c-1.602-1.133-2.635-1.959-3.101-2.473c-0.466-0.516-0.748-1.229-0.846-2.139c-0.099-0.908,0.11-2.072,0.625-3.484
			c0.741-2.039,1.587-3.529,2.538-4.471c0.949-0.943,2.2-1.682,3.749-2.213c1.548-0.531,3.283-0.797,5.202-0.797
			c2.098,0,3.779,0.291,5.045,0.869c1.267,0.58,1.979,1.311,2.138,2.191s-0.146,2.377-0.914,4.488L110.115,89.487z"/>
		<path d="M98.656,80.608c-1.709,0.586-3.115,1.422-4.184,2.48c-1.08,1.07-1.998,2.672-2.806,4.891
			c-0.48,1.32-0.718,2.445-0.718,3.414c0,0.201,0.01,0.396,0.031,0.584c0.123,1.148,0.504,2.084,1.133,2.779
			c0.521,0.576,1.582,1.43,3.229,2.598c-1.874,0-6.071,0-6.071,0c-0.479,0-0.908,0.301-1.072,0.75l-0.635,1.746
			c-0.706,1.939-1.052,3.477-1.052,4.682c0,0.143,0.005,0.281,0.015,0.416c0.107,1.49,0.99,2.701,2.622,3.6
			c1.441,0.793,3.365,1.195,5.717,1.195l0,0c2.097,0,4.085-0.33,5.91-0.979c1.873-0.666,3.314-1.525,4.283-2.553
			c0.963-1.023,1.796-2.523,2.547-4.584c0.663-1.822,0.992-3.338,0.992-4.576c0-0.746-0.119-1.391-0.359-1.941
			c-0.559-1.287-2.136-2.734-4.801-4.48c1.311,0,6.678,0,6.678,0c0.48,0,0.908-0.301,1.072-0.752l0.382-1.051
			c0.69-1.895,1.023-3.311,1.023-4.367c0-0.258-0.02-0.496-0.06-0.713c-0.229-1.266-1.166-2.283-2.784-3.025
			c-1.412-0.645-3.269-0.973-5.521-0.973C102.193,79.749,100.318,80.038,98.656,80.608z M98.372,104.419
			c0.534-0.486,0.97-1.182,1.292-2.068c0.729-2.004,0.809-3.27,0.257-4.104c-0.299-0.434-0.921-1.117-3.206-2.715
			c-1.895-1.342-2.629-1.994-2.909-2.305c-0.298-0.332-0.486-0.834-0.558-1.494c-0.079-0.73,0.11-1.73,0.562-2.973
			c0.681-1.871,1.444-3.234,2.27-4.051c0.822-0.816,1.938-1.471,3.316-1.943c1.424-0.488,3.049-0.736,4.832-0.736
			c1.922,0,3.459,0.258,4.57,0.766c0.619,0.283,1.38,0.75,1.49,1.357c0.014,0.076,0.023,0.18,0.023,0.314
			c0,0.535-0.16,1.582-0.887,3.58c-0.001,0-0.051,0.137-0.109,0.299c-0.967,0-3.35,0-5.076,0c0.057-0.154,0.162-0.443,0.162-0.443
			c0.311-0.85,0.457-1.453,0.457-1.926c0-0.246-0.039-0.457-0.117-0.65c-0.13-0.328-0.576-1.096-1.884-1.096
			c-0.767,0-1.479,0.279-2.06,0.807c-0.516,0.467-0.922,1.119-1.242,1.996c-0.414,1.141-0.52,1.994-0.334,2.689
			c0.178,0.75,0.858,1.469,2.199,2.303c3.568,2.227,4.492,3.457,4.725,3.994c0.217,0.5,0.418,1.793-0.686,4.826
			c-0.633,1.74-1.328,3.018-2.063,3.801c-0.718,0.76-1.858,1.422-3.388,1.967c-1.578,0.562-3.309,0.848-5.145,0.848
			c-1.963,0-3.517-0.309-4.617-0.914c-1.373-0.754-1.429-1.516-1.446-1.766c-0.006-0.072-0.009-0.154-0.009-0.246
			c0-0.688,0.18-1.887,0.915-3.906c0,0,0.189-0.52,0.361-0.994c0.966,0,3.35,0,5.074,0c-0.313,0.861-0.628,1.729-0.628,1.729
			c-0.334,0.914-0.492,1.561-0.492,2.066c0,0.252,0.039,0.469,0.115,0.666c0.166,0.436,0.654,1.164,2.049,1.164
			C97.012,105.261,97.768,104.97,98.372,104.419z M101.42,89.114c0-0.004-0.006-0.031-0.006-0.088c0-0.154,0.035-0.518,0.287-1.211
			c0.232-0.637,0.471-0.943,0.631-1.088c0.021-0.02,0.048-0.012,0.069-0.029c-0.04,0.127-0.081,0.254-0.143,0.424l-0.72,1.977
			c-0.017,0.043-0.014,0.092-0.024,0.137c-0.059-0.068-0.093-0.115-0.095-0.119C101.42,89.116,101.42,89.116,101.42,89.114z
			 M96.659,102.144c0,0,0.78-2.145,1.071-2.943c0.135,0.129,0.214,0.215,0.259,0.271c0.004,0.016,0.012,0.045,0.012,0.139
			c0,0.248-0.066,0.818-0.481,1.959c-0.192,0.529-0.429,0.93-0.684,1.162c-0.13,0.119-0.273,0.176-0.432,0.211
			C96.456,102.745,96.529,102.503,96.659,102.144z"/>
		<path fill="#FDB913" d="M132.525,81.46l-9.67,26.572h-7.07l0.189-12.08l-4.396,12.08h-6.766l9.671-26.572h6.723l0.199,11.965
			l4.354-11.965H132.525z"/>
		<path d="M125.76,80.319c-0.479,0-0.908,0.301-1.072,0.75c0,0-1.123,3.086-2.244,6.166c-0.049-2.895-0.096-5.795-0.096-5.795
			c-0.011-0.623-0.519-1.121-1.141-1.121h-6.723c-0.48,0-0.908,0.301-1.072,0.75l-9.67,26.572c-0.128,0.35-0.076,0.74,0.137,1.045
			c0.214,0.305,0.562,0.486,0.935,0.486h6.766c0.479,0,0.907-0.301,1.072-0.752c0,0,1.042-2.861,2.077-5.707
			c-0.041,2.609-0.084,5.311-0.084,5.318c0,0.299,0.118,0.586,0.328,0.799c0.215,0.219,0.508,0.342,0.812,0.342h7.07
			c0.479,0,0.908-0.301,1.072-0.752l9.67-26.57c0.127-0.35,0.076-0.74-0.137-1.045c-0.215-0.305-0.562-0.486-0.936-0.486H125.76z
			 M130.896,82.601c-0.96,2.639-8.354,22.957-8.84,24.289c-1.025,0-3.711,0-5.112,0c0.03-1.893,0.172-10.932,0.172-10.938
			c0-0.549-0.392-1.023-0.935-1.123c-0.547-0.1-1.088,0.209-1.279,0.732c0,0-3.642,10.008-4.122,11.328c-0.903,0-2.751,0-4.337,0
			c0.959-2.637,8.354-22.955,8.84-24.289c1.006,0,3.467,0,4.801,0c0.031,1.844,0.182,10.842,0.182,10.842
			c0.009,0.551,0.408,1.016,0.951,1.107c0.543,0.09,1.073-0.219,1.261-0.736c0,0,3.601-9.893,4.081-11.213
			C127.463,82.601,129.311,82.601,130.896,82.601z"/>
		<path fill="#FDB913" d="M146.877,97.021c-0.972,2.672-1.734,4.564-2.287,5.676s-1.383,2.127-2.494,3.047
			c-1.11,0.92-2.416,1.627-3.916,2.119c-1.5,0.494-3.129,0.74-4.885,0.74c-1.667,0-3.08-0.234-4.237-0.699
			c-1.159-0.465-1.972-1.164-2.44-2.094c-0.47-0.932-0.582-1.943-0.337-3.039s0.864-3.012,1.862-5.75l1.656-4.551
			c0.973-2.672,1.733-4.562,2.285-5.674c0.553-1.113,1.385-2.127,2.495-3.049c1.11-0.918,2.416-1.625,3.916-2.119
			c1.501-0.492,3.128-0.738,4.886-0.738c1.666,0,3.079,0.232,4.237,0.699c1.157,0.465,1.972,1.162,2.44,2.094
			c0.469,0.93,0.582,1.943,0.336,3.039c-0.244,1.096-0.864,3.012-1.861,5.748L146.877,97.021z M141.996,88.269
			c0.451-1.238,0.656-2.031,0.619-2.377c-0.039-0.346-0.314-0.52-0.826-0.52c-0.434,0-0.817,0.141-1.149,0.42
			c-0.331,0.281-0.746,1.105-1.245,2.477l-4.529,12.443c-0.563,1.549-0.836,2.502-0.815,2.863c0.019,0.363,0.305,0.545,0.856,0.545
			c0.566,0,1.003-0.209,1.312-0.627c0.309-0.416,0.749-1.41,1.32-2.979L141.996,88.269z"/>
		<path d="M138.139,80.544c-1.627,0.535-3.07,1.316-4.287,2.326c-1.229,1.018-2.168,2.168-2.789,3.418
			c-0.572,1.152-1.337,3.047-2.336,5.791c0,0.002-1.656,4.553-1.656,4.553c-1.023,2.809-1.646,4.736-1.904,5.891
			c-0.302,1.352-0.157,2.631,0.432,3.801c0.596,1.182,1.617,2.07,3.035,2.639c1.287,0.518,2.857,0.781,4.662,0.781
			c1.87,0,3.633-0.268,5.24-0.797c1.63-0.535,3.072-1.316,4.289-2.324c1.229-1.018,2.166-2.168,2.788-3.418
			c0.577-1.162,1.341-3.057,2.337-5.793l1.656-4.551c1.022-2.807,1.645-4.734,1.902-5.891c0.303-1.352,0.158-2.631-0.431-3.801
			c-0.595-1.182-1.616-2.068-3.034-2.639c-1.287-0.52-2.857-0.781-4.662-0.781C141.51,79.749,139.747,80.017,138.139,80.544z
			 M129.483,106.845c-0.9-0.361-1.505-0.867-1.849-1.549c-0.35-0.693-0.429-1.439-0.241-2.277c0.232-1.041,0.845-2.928,1.821-5.607
			l1.656-4.551c0.955-2.627,1.707-4.496,2.235-5.557c0.479-0.963,1.219-1.863,2.2-2.678c0.996-0.824,2.188-1.469,3.545-1.914
			c1.377-0.451,2.901-0.682,4.529-0.682c1.512,0,2.795,0.207,3.812,0.617c0.9,0.361,1.504,0.867,1.847,1.549
			c0.351,0.695,0.43,1.439,0.242,2.275c-0.233,1.045-0.846,2.932-1.819,5.607c-0.001,0.002-1.657,4.553-1.657,4.553
			c0.002,0,0.002,0,0.002-0.002c-0.955,2.619-1.707,4.49-2.238,5.559c-0.479,0.963-1.219,1.863-2.199,2.676
			c-0.996,0.824-2.189,1.469-3.545,1.914c-1.378,0.453-2.901,0.684-4.529,0.684C131.782,107.462,130.5,107.253,129.483,106.845z"/>
		<path d="M139.905,84.919c-0.362,0.305-0.832,0.896-1.583,2.961l-4.529,12.443c-0.768,2.107-0.908,2.85-0.883,3.316
			c0.039,0.746,0.586,1.621,1.996,1.621c0.931,0,1.701-0.377,2.229-1.088c0.263-0.354,0.666-1.043,1.477-3.268l4.457-12.246
			c0.674-1.854,0.726-2.486,0.682-2.893c-0.084-0.742-0.643-1.535-1.961-1.535C141.092,84.231,140.439,84.47,139.905,84.919z
			 M135.938,101.103l4.529-12.443c0.42-1.154,0.683-1.645,0.816-1.855c-0.082,0.273-0.188,0.602-0.359,1.076l-4.457,12.244
			c-0.561,1.541-0.883,2.211-1.051,2.508C135.527,102.272,135.689,101.782,135.938,101.103z"/>
		<path fill="#FDB913" d="M153.753,81.46h5.72c3.812,0,6.348,0.127,7.606,0.377c1.259,0.252,2.124,0.895,2.601,1.928
			c0.475,1.033,0.301,2.682-0.523,4.943c-0.752,2.066-1.559,3.455-2.418,4.166c-0.861,0.711-2.201,1.137-4.02,1.279
			c1.477,0.34,2.387,0.795,2.73,1.363s0.496,1.092,0.457,1.568s-0.449,1.787-1.23,3.934l-2.553,7.014h-7.502l3.214-8.832
			c0.518-1.422,0.706-2.303,0.565-2.641c-0.141-0.34-0.771-0.51-1.891-0.51l-4.361,11.982h-8.066L153.753,81.46z M160.158,86.024
			l-2.137,5.867c0.916,0,1.594-0.104,2.039-0.316c0.443-0.211,0.877-0.898,1.3-2.062l0.528-1.451
			c0.305-0.836,0.326-1.385,0.068-1.645C161.697,86.155,161.098,86.024,160.158,86.024z"/>
		<path d="M153.753,80.319c-0.479,0-0.908,0.301-1.071,0.75l-9.671,26.572c-0.128,0.35-0.075,0.74,0.138,1.045
			s0.562,0.486,0.934,0.486h8.066c0.48,0,0.908-0.301,1.072-0.75c0,0,3.194-8.777,3.914-10.756c-0.08,0.287-0.188,0.639-0.372,1.145
			l-3.214,8.83c-0.046,0.127-0.068,0.258-0.068,0.391c0,0.23,0.07,0.459,0.205,0.654c0.215,0.305,0.562,0.486,0.936,0.486h7.502
			c0.48,0,0.908-0.301,1.072-0.752l2.553-7.014c1.084-2.977,1.262-3.822,1.295-4.229c0.007-0.078,0.01-0.158,0.01-0.24
			c0-0.645-0.209-1.32-0.625-2.01c-0.085-0.141-0.209-0.262-0.324-0.387c0.51-0.221,0.979-0.473,1.361-0.789
			c1.028-0.85,1.933-2.373,2.764-4.654c0.567-1.559,0.85-2.871,0.85-3.957c0-0.713-0.121-1.328-0.363-1.854
			c-0.625-1.359-1.805-2.248-3.412-2.568c-1.348-0.27-3.909-0.4-7.83-0.4H153.753z M159.473,82.601c3.717,0,6.201,0.119,7.383,0.355
			c0.898,0.18,1.467,0.588,1.787,1.285c0.078,0.172,0.156,0.455,0.156,0.906c0,0.65-0.162,1.652-0.715,3.172
			c-0.845,2.32-1.594,3.279-2.072,3.674c-0.673,0.557-1.811,0.9-3.382,1.021c-0.562,0.045-1.007,0.492-1.049,1.053
			c-0.003,0.029-0.003,0.059-0.003,0.086c0,0.527,0.363,0.992,0.885,1.111c1.725,0.398,2,0.824,2.012,0.842
			c0.194,0.324,0.297,0.611,0.297,0.832c0,0.018-0.002,0.035-0.002,0.053c-0.008,0.094-0.102,0.713-1.166,3.637
			c0,0-1.622,4.459-2.279,6.262c-0.965,0-3.35,0-5.074,0c0.762-2.092,2.656-7.299,2.656-7.299c0.503-1.381,0.684-2.191,0.684-2.746
			c0-0.299-0.053-0.523-0.135-0.723c-0.449-1.076-1.81-1.213-2.945-1.213c-0.479,0-0.908,0.299-1.072,0.75
			c0,0-3.607,9.912-4.088,11.23c-1.006,0-3.82,0-5.638,0c0.96-2.637,8.354-22.955,8.84-24.289
			C155.734,82.601,159.473,82.601,159.473,82.601z"/>
		<path d="M159.086,85.634l-2.136,5.869c-0.128,0.35-0.076,0.74,0.138,1.045c0.213,0.305,0.562,0.486,0.934,0.486
			c1.1,0,1.928-0.141,2.531-0.43c0.75-0.357,1.331-1.191,1.881-2.701l0.527-1.451c0.174-0.479,0.704-1.934-0.194-2.84
			c-0.501-0.504-1.306-0.729-2.608-0.729C159.679,84.884,159.25,85.183,159.086,85.634z M160.939,87.216c0.004,0,0.01,0,0.013,0.002
			c-0.024,0.111-0.062,0.25-0.136,0.453l-0.528,1.451c-0.124,0.344-0.233,0.592-0.332,0.793
			C160.43,88.616,160.707,87.853,160.939,87.216z"/>
		<path fill="#FDB913" d="M189.482,81.46l-1.943,5.338h-4.857l-7.728,21.234h-8.065l7.727-21.234h-4.77l1.942-5.338H189.482z"/>
		<path d="M171.788,80.319c-0.479,0-0.908,0.301-1.071,0.75l-1.943,5.34c-0.128,0.35-0.076,0.738,0.137,1.045
			c0.214,0.305,0.562,0.486,0.936,0.486c0,0,1.729,0,3.141,0c-0.959,2.637-7.17,19.701-7.17,19.701
			c-0.047,0.127-0.068,0.258-0.068,0.391c0,0.23,0.069,0.459,0.205,0.654c0.215,0.305,0.562,0.486,0.936,0.486h8.065
			c0.479,0,0.908-0.301,1.071-0.752c0,0,6.947-19.084,7.455-20.48c1.115,0,4.059,0,4.059,0c0.48,0,0.908-0.301,1.072-0.752
			l1.943-5.338c0.047-0.127,0.068-0.26,0.068-0.391c0-0.23-0.07-0.461-0.205-0.654c-0.215-0.305-0.562-0.486-0.936-0.486H171.788z
			 M187.854,82.601c-0.455,1.25-0.844,2.318-1.113,3.057c-1.115,0-4.059,0-4.059,0c-0.479,0-0.907,0.301-1.072,0.752
			c0,0-6.945,19.084-7.454,20.48c-1.006,0-3.82,0-5.638,0c0.959-2.635,7.17-19.701,7.17-19.701c0.046-0.127,0.068-0.258,0.068-0.391
			c0-0.23-0.07-0.459-0.205-0.654c-0.215-0.305-0.562-0.486-0.936-0.486c0,0-1.729,0-3.141,0c0.455-1.25,0.844-2.318,1.112-3.057
			C173.902,82.601,185.301,82.601,187.854,82.601z"/>
		<g>
			<path d="M190.851,84.094c0-2.165,1.738-3.913,3.912-3.913c2.165,0,3.913,1.748,3.913,3.913c0,2.164-1.748,3.912-3.913,3.912
				C192.589,88.006,190.851,86.258,190.851,84.094z M197.636,84.094c0-1.748-1.197-2.871-2.873-2.871
				c-1.706,0-2.871,1.123-2.871,2.871c0,1.749,1.165,2.871,2.871,2.871C196.438,86.965,197.636,85.843,197.636,84.094z
				 M196.71,86.216h-1.073l-0.937-1.779h-0.613v1.779h-0.936v-4.213h2.048c1.104,0,1.634,0.291,1.634,1.289
				c0,0.781-0.406,1.094-1.153,1.145L196.71,86.216z M195.21,83.708c0.365,0.011,0.636-0.104,0.636-0.529
				c0-0.49-0.542-0.447-0.844-0.447h-0.915v0.977H195.21z"/>
		</g>
	</g>
	<g>
		<g>
			<g>
				<path fill="#F7A8AA" d="M126.957,35.825c-1.735-2.775-6.593-4.033-10.409-3.34c-14.088,3.25-33.022-1.239-38.109-4.167
					c-0.347,0,0.763-2.768,0.069-3.809c1.04-0.693,1.398-1.16,2.786-0.813c2.429,1.04,5.368,0.608,7.796,0.262
					c-1.393-2.787-2.857-8.15-4.938-11.272c-2.082,1.734-5.259,3.055-7.341,4.443C72.975,6.766,59.989,4.881,49.494,10.887
					c-0.301,0.173-0.585,0.13-0.585,0.13s-2.819-5.985-4.033-8.761c-3.752,2.234-7.026,5.248-8.479,5.248
					c-2.819,0-6.244-0.022-9.021-0.369c0,4.857,1.865,10.452,2.082,14.594c-4.163,4.163-8.326,8.327-11.103,13.53
					c-3.079-0.715-6.477-1.19-9.628,0.131c-2.017,0.846-4.357,3.368-3.556,6.114c0.455,1.562,2.428,3.188,6.244,4.164
					c-7.48,7.242-11.254,22.245-4.51,27.404c-1.734,1.734-3.777,3.369-4.38,5.617c-0.803,2.992,0.915,4.07,2.992,4.445
					c3.838,0.693,6.636-1.193,9.411-2.928c5.984,3.557,10.04,3.297,16.957,3.621c0.693,0.033,2.32,2.082,2.32,2.082
					s-4.672-0.531-7.091,0.195c-3.253,0.975-6.088,4.037-3.838,6.678c3.36,3.947,9.801,5.4,15.634,3.947
					c3.535,3.795,1.887,9.953-4.055,12.426c5.204-0.348,11.211-3.816,11.84-11.016c0.121-1.383-0.673-3.557-1.713-4.598
					c-0.694-0.693-1.648-1.734-1.648-1.734s2.926-5.568-3.122-8.674c2.404-0.482,6.938-2.43,6.938-2.43s1.836,2.143,3.47,2.43
					c1.742,0.305,3.84-0.686,4.511-2.43c0.98-2.553-2.082-4.51-2.082-4.51l2.429-3.816c0,0,2.095,1.982,3.047,3.574
					c2.964,4.957,3.545,9.957,6.32,14.814c1.388,2.428,3.838,4.424,6.267,5.465c2.082,0.693,4.359,0.824,6.701,0.412
					c3.923-0.691,7.004-1.996,9.259-3.34c15.507-9.242,26.374-21.295,35.763-38.399C125.301,50.416,130.426,41.376,126.957,35.825z
					 M82.889,15.138c0,0,0.923,1.614,1.388,2.775c0.693,1.735,2.041,5.051,2.041,5.051l-2.801-0.469l-2.622-1.877
					c0,0-0.372,1.38-1.822,2.499c-0.703-2.03,0.815-3.051-1.31-5.328C79.497,16.75,82.889,15.138,82.889,15.138z M44.724,98.228
					c0.637,3.701-2.66,7.459-4.915,8.904c1.966-3.064,3.874-4.395,1.619-10.697c-0.89-2.488-3.123-4.279-5.378-5.781
					c-0.693-0.463-1.652-0.775-2.718-1.041c-1.156-0.291-2.429,0.578-3.469,1.617c0,0,3.296,1.621,6.129,2.141
					c1.619,2.141-1.619,2.197-1.619,2.197c-0.347,0.346-9.396-0.912-8.789-5.318c0.231-1.68,3.643-4.916,10.466-2.256
					C39.819,89.462,44.13,94.771,44.724,98.228z M40.907,85.216c1.701,0.775,1.735,2.777,1.735,4.512
					c0,0.348-0.348,0.348-0.694,0.693c-1.099-1.908-2.833-2.834-4.511-4.162c-0.384-0.305-0.578-0.406-0.23-0.752
					C38.247,84.464,39.636,84.638,40.907,85.216z M53.552,79.284c-0.646,2.426-2.899,2.012-3.124,0.781
					c-0.197-1.078,1.122-1.4,1.589-1.93C52.395,78.333,53.642,78.95,53.552,79.284z M66.705,85.642
					c-3.729-11.232-14.139-21.509-19.19-24.46c-0.3-0.174-0.933,0.76-0.933,0.76s4.554,4.271,5.248,7.394
					c0.694,2.777-0.867,5.748-2.603,7.828c-6.938,6.594-16.35,5.291-25.283,4.662c-2.791-0.195-6.874-2.08-4.728-6.244
					c-3.123,2.428-7.98,6.961-11.493,5.551c-0.681-0.273-1.713-2.008-0.962-3.594c1.266-2.672,5.507-6.871,9.22-8.736
					c0.197-0.377-0.286-1.04-1.65-0.412c-1.409,0.648-4.204,3.35-5.327,2.797C2.672,68.075,6.729,56.44,8.808,52.6
					c2.583-4.771,5.875-5.622,9.345-6.663c-4.126-0.735-7.282-1.165-9.364-3.247c-1.04-1.388-0.544-2.471,0.497-3.859
					c1.041-1.04,2.229-1.755,3.701-2.186c1.386-0.405,2.607-0.239,3.964,0.054c3.408,0.735,3.593,2.464,5.327,2.117
					c-0.362-0.777-2.109-2.45-1.774-3.149c1.676-3.503,4.433-7.223,8.209-10.395c0.471-0.396,0.888-0.489,1.582-0.489
					c1.04,0.347,0.64,1.394,1.242,2.41c1.032,1.74,3.896,1.727,5.63,0.339c3.47-2.775,4.638-7.981,6.025-12.145
					c0-0.347,1.13-2.523-0.772-1.905c-0.922,3.807-2.429,6.939-4.511,10.408c-1.041,1.388-2.246,2.66-3.98,1.966
					c-0.347-0.347-1.073-0.539-1.224-1.618C32.011,19.264,30.99,9.965,30.99,9.965s4.832,0.64,6.646,0.226
					c1.073-0.245,3.483-3.101,5.913-4.142c1.734,2.428,3.351,4.726,4.857,7.117c6.938-3.123,15.09-5.637,22.029-0.433
					c2.429,2.082,5.008,4.674,5.831,6.995c0.625,1.757,1.019,6.1,0.552,9.405c5.898,3.122,11.73,4.884,18.335,6.207
					c2.943,0.59,5.168,0.832,8.047,1.061c1.426,0.113,4.746,0.582,11.388-0.583c-13.535,2.775-24.465,11.467-33.658,22.072
					C76.42,63.09,68.268,75.815,67.204,80.374C66.749,82.325,66.618,83.345,66.705,85.642z M122.1,51.221
					c-2.256,6.697-8.11,15.457-14.14,22.026c-5.601,6.102-21.521,20.73-32.722,20.111c-5.242-0.289-7.304-5.705-5.418-11.727
					C73.405,70.183,89.191,47,109.262,38.687c4.168-1.727,11.536-2.516,13.184-0.304C124.824,41.575,123.5,47.061,122.1,51.221z"/>
			</g>
		</g>
		<g>
			<g>
				<path fill="#F7A8AA" d="M126.957,35.825c-1.735-2.775-6.593-4.033-10.409-3.34c-14.088,3.25-33.022-1.239-38.109-4.167
					c-0.347,0,0.763-2.768,0.069-3.809c1.04-0.693,1.398-1.16,2.786-0.813c2.429,1.04,5.368,0.608,7.796,0.262
					c-1.393-2.787-2.857-8.15-4.938-11.272c-2.082,1.734-5.259,3.055-7.341,4.443C72.975,6.766,59.989,4.881,49.494,10.887
					c-0.301,0.173-0.585,0.13-0.585,0.13s-2.819-5.985-4.033-8.761c-3.752,2.234-7.026,5.248-8.479,5.248
					c-2.819,0-6.244-0.022-9.021-0.369c0,4.857,1.865,10.452,2.082,14.594c-4.163,4.163-8.326,8.327-11.103,13.53
					c-3.079-0.715-6.477-1.19-9.628,0.131c-2.017,0.846-4.357,3.368-3.556,6.114c0.455,1.562,2.428,3.188,6.244,4.164
					c-7.48,7.242-11.254,22.245-4.51,27.404c-1.734,1.734-3.777,3.369-4.38,5.617c-0.803,2.992,0.915,4.07,2.992,4.445
					c3.838,0.693,6.636-1.193,9.411-2.928c5.984,3.557,10.04,3.297,16.957,3.621c0.693,0.033,2.32,2.082,2.32,2.082
					s-4.672-0.531-7.091,0.195c-3.253,0.975-6.088,4.037-3.838,6.678c3.36,3.947,9.801,5.4,15.634,3.947
					c3.535,3.795,1.887,9.953-4.055,12.426c5.204-0.348,11.211-3.816,11.84-11.016c0.121-1.383-0.673-3.557-1.713-4.598
					c-0.694-0.693-1.648-1.734-1.648-1.734s2.926-5.568-3.122-8.674c2.404-0.482,6.938-2.43,6.938-2.43s1.836,2.143,3.47,2.43
					c1.742,0.305,3.84-0.686,4.511-2.43c0.98-2.553-2.082-4.51-2.082-4.51l2.429-3.816c0,0,2.095,1.982,3.047,3.574
					c2.964,4.957,3.545,9.957,6.32,14.814c1.388,2.428,3.838,4.424,6.267,5.465c2.082,0.693,4.359,0.824,6.701,0.412
					c3.923-0.691,7.004-1.996,9.259-3.34c15.507-9.242,26.374-21.295,35.763-38.4C125.301,50.416,130.426,41.376,126.957,35.825z
					 M122.1,51.221c-2.256,6.697-8.11,15.457-14.14,22.026c-5.601,6.102-21.521,20.73-32.722,20.111
					c-5.242-0.289-7.304-5.705-5.418-11.727C73.405,70.183,89.191,47,109.262,38.687c4.168-1.727,11.536-2.516,13.184-0.304
					C124.824,41.575,123.5,47.061,122.1,51.221z"/>
			</g>
		</g>
		<path fill="#FAC6C5" d="M70.86,93.413c5.266,5.768,23.165-2.191,37.097-18.646c13.795-16.298,20.502-33.295,16.539-38.073
			c-3.477-4.192-24.738,1.331-39.873,18.77C70.495,71.741,63.979,85.876,70.86,93.413z"/>
		<g>
			<path fill="#FCDDDB" d="M58.255,23.43c-0.815-2.038-1.311-5.963,0.425-6.657c1.202-0.172,2.021,0.195,2.599-0.397
				c0.59-0.605,0.863-1.763,2.181-2.314c4.162-1.74,9.021,0.694,10.756,4.511c1.734,3.816,1.673,9.216-2.144,10.95
				C67.214,31.605,60.337,28.634,58.255,23.43z"/>
			<path fill="#FCDDDB" d="M117.646,40.604c0-1.041-0.578-2.255,0.809-2.949c1.736-0.347,3.596,0.507,4.223,1.793
				c4.453,9.136-6.997,24.744-14.168,33.36c-6.344,7.619-15.387,14.631-25.101,19.141c-3.817,1.387-8.963,3.18-12.086-0.289
				c2.082-3.816,7.314-1.279,10.756-2.775c1.33-0.578,5.956-4.164,8.691-6.723c-0.693,1.389,11.202-7.734,16.408-15.021
				c3.818-4.857,7.345-9.48,9.774-14.683c0.693-1.387,2.602-0.867,3.295-2.255c0-0.347,0.752-1.156,0.059-1.156
				c-1.735,0-2.486,1.099-3.932,1.908c0-1.388,1.619-2.312,2.602-4.163c-0.348,0.347-0.752-1.099,0.058-2.834
				C118.803,42.455,117.646,42.686,117.646,40.604z"/>
			<path fill="#FCDDDB" d="M100.828,50.568c-8.282,7.145-16.021,17.644-21.346,27.847c-2.368,4.537-2.309,9.555-2.366,9.268
				c-2.775-4.51,0.71-12.131,2.303-14.643c8.246-13.011,20.066-29.429,34.585-29.95C109.492,44.131,104.193,47.664,100.828,50.568z"
				/>
		</g>
		<path fill="#F59298" d="M20.524,73.108c3.446-3.445,7.286-2.264,8.172-1.574c0.887,0.689,2.462,4.43,3.841,4.924
			c1.378,0.492,5.514,2.658,10.338,0.492c4.825-2.168,6.695-4.234,6.794-6.695c0.099-2.462,0.886-2.266-2.067-4.825
			c-2.954-2.561-3.15-2.068-4.727-3.348c-1.575-1.279-1.674-2.756-0.492-4.43c1.182-1.672,4.431-1.279,6.893,0.197
			c2.461,1.477,7.089,5.02,7.68,5.512s6.893,5.81,8.665,5.81c1.771,0,2.166,0.197,3.938-0.984c1.772-1.181,1.28-0.493,3.544-2.067
			c2.265-1.576,3.25-2.363,3.25-2.363l-4.628,9.157l-3.644,9.846l-1.182,4.137l-4.135-5.91l-1.97-4.725l-3.544-2.955l-2.265-2.264
			l-1.97,2.166l-3.053,5.021l-12.405,4.824l-8.566-0.197l-7.483-0.689l-4.037-3.348"/>
		<path fill="#F59298" d="M25.025,47.963c1.01,4.61-9.944,4.534-8.755,11.312c0.459,2.617,2.315,1.18,3.363,2.494
			c1.043,1.309,1.265,2.625,0.674,3.807s-1.545,2.143-2.363,2.362c-1.435,0.385-1.182-0.296-2.363,0.197
			c-1.182,0.492-1.772,1.182-1.772,1.182l-3.348,2.166l-1.477,1.082l-3.053-2.264l-1.477-3.644l0.591-7.088l1.575-5.413l2.855-4.922
			l2.757-2.658l3.741-0.493c0,0,1.665-0.271,3.841-0.295C23.024,45.753,24.686,46.414,25.025,47.963z"/>
		<path fill="#F59298" d="M20.899,37.423l8.038,7.46c0,0,1.272,1.329,2.718,1.561s2.833,0.579,4.048-2.081
			c1.214-2.66,0.982-4.164,1.099-5.493c0.115-1.331-0.058-3.701,0.115-5.378c0.174-1.677,0.926-3.181,1.908-3.99
			c0.983-0.81,1.157-1.793,3.238-3.181c2.082-1.388,2.66-1.966,3.47-3.064s0.983-4.105,0.868-4.857
			c-0.116-0.751,0.058-3.296-0.174-3.99c-0.231-0.694-0.521-1.793-1.157-1.909c-0.636-0.115-0.809,0-1.099,0.81
			c-0.289,0.81-1.156,2.255-1.156,2.255L42.18,16.78l-1.446,2.486l-1.33,2.775l-0.52,1.157l-1.908,2.371l-1.735,1.099l-1.792,0.347
			l-1.908-3.007l-1.677-0.405l-1.678,0.694l-3.989,4.452l-4.568,5.841l0.231,1.677"/>
		<g>
			<g>
				<path d="M126.957,35.825c-1.735-2.775-6.593-4.033-10.409-3.34c-14.088,3.25-33.022-1.239-38.109-4.167
					c-0.347,0,0.763-2.768,0.069-3.809c1.04-0.693,1.398-1.16,2.786-0.813c2.429,1.04,5.368,0.608,7.796,0.262
					c-1.393-2.787-2.857-8.15-4.938-11.272c-2.082,1.734-5.259,3.055-7.341,4.443C72.975,6.766,59.989,4.881,49.494,10.887
					c-0.301,0.173-0.585,0.13-0.585,0.13s-2.819-5.985-4.033-8.761c-3.752,2.234-7.026,5.248-8.479,5.248
					c-2.819,0-6.244-0.022-9.021-0.369c0,4.857,1.865,10.452,2.082,14.594c-4.163,4.163-8.326,8.327-11.103,13.53
					c-3.079-0.715-6.477-1.19-9.628,0.131c-2.017,0.846-4.357,3.368-3.556,6.114c0.455,1.562,2.428,3.188,6.244,4.164
					c-7.48,7.242-11.254,22.245-4.51,27.404c-1.734,1.734-3.777,3.369-4.38,5.617c-0.803,2.992,0.915,4.07,2.992,4.445
					c3.838,0.693,6.636-1.193,9.411-2.928c5.984,3.557,10.04,3.297,16.957,3.621c0.693,0.033,2.32,2.082,2.32,2.082
					s-4.672-0.531-7.091,0.195c-3.253,0.975-6.088,4.037-3.838,6.678c3.36,3.947,9.801,5.4,15.634,3.947
					c3.535,3.795,1.887,9.953-4.055,12.426c5.204-0.348,11.211-3.816,11.84-11.016c0.121-1.383-0.673-3.557-1.713-4.598
					c-0.694-0.693-1.648-1.734-1.648-1.734s2.926-5.568-3.122-8.674c2.404-0.482,6.938-2.43,6.938-2.43s1.836,2.143,3.47,2.43
					c1.742,0.305,3.84-0.686,4.511-2.43c0.98-2.553-2.082-4.51-2.082-4.51l2.429-3.816c0,0,2.095,1.982,3.047,3.574
					c2.964,4.957,3.545,9.957,6.32,14.814c1.388,2.428,3.838,4.424,6.267,5.465c2.082,0.693,4.359,0.824,6.701,0.412
					c3.923-0.691,7.004-1.996,9.259-3.34c15.507-9.242,26.374-21.295,35.763-38.399C125.301,50.416,130.426,41.376,126.957,35.825z
					 M82.889,15.138c0,0,0.923,1.614,1.388,2.775c0.693,1.735,2.041,5.051,2.041,5.051l-2.801-0.469l-2.622-1.877
					c0,0-0.372,1.38-1.822,2.499c-0.703-2.03,0.815-3.051-1.31-5.328C79.497,16.75,82.889,15.138,82.889,15.138z M44.724,98.228
					c0.637,3.701-2.66,7.459-4.915,8.904c1.966-3.064,3.874-4.395,1.619-10.697c-0.89-2.488-3.123-4.279-5.378-5.781
					c-0.693-0.463-1.652-0.775-2.718-1.041c-1.156-0.291-2.429,0.578-3.469,1.617c0,0,3.296,1.621,6.129,2.141
					c1.619,2.141-1.619,2.197-1.619,2.197c-0.347,0.346-9.396-0.912-8.789-5.318c0.231-1.68,3.643-4.916,10.466-2.256
					C39.819,89.462,44.13,94.771,44.724,98.228z M40.907,85.216c1.701,0.775,1.735,2.777,1.735,4.512
					c0,0.348-0.348,0.348-0.694,0.693c-1.099-1.908-2.833-2.834-4.511-4.162c-0.384-0.305-0.578-0.406-0.23-0.752
					C38.247,84.464,39.636,84.638,40.907,85.216z M53.552,79.284c-0.646,2.426-2.899,2.012-3.124,0.781
					c-0.197-1.078,1.122-1.4,1.589-1.93C52.395,78.333,53.642,78.95,53.552,79.284z M66.705,85.642
					c-3.729-11.232-14.139-21.509-19.19-24.46c-0.3-0.174-0.933,0.76-0.933,0.76s4.554,4.271,5.248,7.394
					c0.694,2.777-0.867,5.748-2.603,7.828c-6.938,6.594-16.35,5.291-25.283,4.662c-2.791-0.195-6.874-2.08-4.728-6.244
					c-3.123,2.428-7.98,6.961-11.493,5.551c-0.681-0.273-1.713-2.008-0.962-3.594c1.266-2.672,5.507-6.871,9.22-8.736
					c0.197-0.377-0.286-1.04-1.65-0.412c-1.409,0.648-4.204,3.35-5.327,2.797C2.672,68.075,6.729,56.44,8.808,52.6
					c2.583-4.771,5.875-5.622,9.345-6.663c-4.126-0.735-7.282-1.165-9.364-3.247c-1.04-1.388-0.544-2.471,0.497-3.859
					c1.041-1.04,2.229-1.755,3.701-2.186c1.386-0.405,2.607-0.239,3.964,0.054c3.408,0.735,3.593,2.464,5.327,2.117
					c-0.362-0.777-2.109-2.45-1.774-3.149c1.676-3.503,4.433-7.223,8.209-10.395c0.471-0.396,0.888-0.489,1.582-0.489
					c1.04,0.347,0.64,1.394,1.242,2.41c1.032,1.74,3.896,1.727,5.63,0.339c3.47-2.775,4.638-7.981,6.025-12.145
					c0-0.347,1.13-2.523-0.772-1.905c-0.922,3.807-2.429,6.939-4.511,10.408c-1.041,1.388-2.246,2.66-3.98,1.966
					c-0.347-0.347-1.073-0.539-1.224-1.618C32.011,19.264,30.99,9.965,30.99,9.965s4.832,0.64,6.646,0.226
					c1.073-0.245,3.483-3.101,5.913-4.142c1.734,2.428,3.351,4.726,4.857,7.117c6.938-3.123,15.09-5.637,22.029-0.433
					c2.429,2.082,5.008,4.674,5.831,6.995c0.625,1.757,1.019,6.1,0.552,9.405c5.898,3.122,11.73,4.884,18.335,6.207
					c2.943,0.59,5.168,0.832,8.047,1.061c1.426,0.113,4.746,0.582,11.388-0.583c-13.535,2.775-24.465,11.467-33.658,22.072
					C76.42,63.09,68.268,75.815,67.204,80.374C66.749,82.325,66.618,83.345,66.705,85.642z M122.1,51.221
					c-2.256,6.697-8.11,15.457-14.14,22.026c-5.601,6.102-21.521,20.73-32.722,20.111c-5.242-0.289-7.304-5.705-5.418-11.727
					C73.405,70.183,89.191,47,109.262,38.687c4.168-1.727,11.536-2.516,13.184-0.304C124.824,41.575,123.5,47.061,122.1,51.221z"/>
			</g>
		</g>
		<path d="M66.521,17c-2.78-2.744-6.733,6.751-7.815,3.355c2.285-2.285,4.873-6.25,8.327-5.625c4.244,0.769,0.859,6.477,3.056,8.124
			c0.681,0.512,1.481-2.379,2.635-1.189c-1.043,2.8-3.806,1.537-3.806,1.537s-0.915,4.281-2.216,3.246
			c-0.149-0.448,0.383-0.906,0.624-1.618c0.373-1.103,0.474-2.357-0.439-1.609c-0.611,0.502-1.457,1.738-0.951,3.348
			c0.083,0.264,1.317,0.659,0.513,1.152c-0.44,0.46-1.391-0.127-1.649-0.892c-0.865-2.55,1.356-5.64,3.332-4.926
			C67.563,20.532,67.671,18.135,66.521,17z"/>
		<g>
			<g>
				<path d="M74.318,24.925c0-0.381-0.381-1.143-1.143-0.762c-0.381,0.381-0.856,0.546-1.02,1.29
					c-0.164,0.75-0.856,1.781-0.476,2.543C73.204,28.757,74.699,26.449,74.318,24.925z M73.528,25.984
					c-0.055,0.658-0.146,0.585-0.457,1.098c-0.312,0.513-0.439,0.091-0.53-0.33c-0.092-0.42,0.091-0.53,0.292-1.207
					c0.172-0.578,0.341-0.507,0.423-0.514C73.639,24.996,73.583,25.325,73.528,25.984z"/>
			</g>
		</g>
		<path d="M91.562,60.238c6.076-7.423,15.212-16.201,22.443-17.323c-0.186,3.205-4.482,1.644-4.83,4.072
			c-0.348,1.388-1.373,2.131-2.322,3.883c-4.258,7.874-9.99,13.26-15.489,19.96c-10.147,12.361-12.625,9.586-14.065,16.256
			C76.409,78.95,85.317,67.869,91.562,60.238z"/>
		<path d="M103.709,62.318c2.877-3.729,9.514-10.794,16.453-13.223c0.81,1.027-2.74,2.159-2.92,2.472
			c-5.74,9.986-7.289,11.009-11.668,16.793c-8.287,10.943-14.215,12.244-15.4,17.578C89.957,79.665,98.279,69.354,103.709,62.318z"
			/>
		<path d="M41.785,71.46c-0.694-1.736,1.826-3.763,3.049-2.939C44.201,69.427,43.104,71.28,41.785,71.46z"/>
		<path fill="#FDB913" d="M110.115,89.487h-7.504l0.719-1.975c0.336-0.922,0.454-1.51,0.354-1.762s-0.377-0.379-0.825-0.379
			c-0.487,0-0.919,0.17-1.292,0.51c-0.375,0.34-0.686,0.854-0.938,1.543c-0.322,0.887-0.424,1.555-0.304,2.004
			c0.106,0.449,0.673,0.99,1.698,1.627c2.937,1.834,4.66,3.336,5.17,4.51s0.289,3.062-0.66,5.672
			c-0.689,1.896-1.459,3.293-2.305,4.191c-0.848,0.898-2.127,1.652-3.836,2.26c-1.709,0.609-3.553,0.914-5.527,0.914
			c-2.167,0-3.89-0.352-5.167-1.055c-1.277-0.701-1.956-1.596-2.034-2.684c-0.079-1.086,0.244-2.627,0.972-4.625l0.635-1.744h7.503
			l-1.186,3.258c-0.366,1.004-0.494,1.65-0.384,1.936c0.109,0.287,0.438,0.432,0.983,0.432s1.018-0.182,1.416-0.545
			c0.398-0.361,0.729-0.902,0.988-1.615c0.572-1.572,0.697-2.6,0.377-3.084c-0.333-0.482-1.303-1.287-2.908-2.41
			c-1.602-1.133-2.635-1.959-3.101-2.473c-0.466-0.516-0.748-1.229-0.846-2.139c-0.099-0.908,0.11-2.072,0.625-3.484
			c0.741-2.039,1.587-3.529,2.538-4.471c0.949-0.943,2.2-1.682,3.749-2.213c1.548-0.531,3.283-0.797,5.202-0.797
			c2.098,0,3.779,0.291,5.045,0.869c1.267,0.58,1.979,1.311,2.138,2.191s-0.146,2.377-0.914,4.488L110.115,89.487z"/>
		<path d="M98.656,80.608c-1.709,0.586-3.115,1.422-4.184,2.48c-1.08,1.07-1.998,2.672-2.806,4.891
			c-0.48,1.32-0.718,2.445-0.718,3.414c0,0.201,0.01,0.396,0.031,0.584c0.123,1.148,0.504,2.084,1.133,2.779
			c0.521,0.576,1.582,1.43,3.229,2.598c-1.874,0-6.071,0-6.071,0c-0.479,0-0.908,0.301-1.072,0.75l-0.635,1.746
			c-0.706,1.939-1.052,3.477-1.052,4.682c0,0.143,0.005,0.281,0.015,0.416c0.107,1.49,0.99,2.701,2.622,3.6
			c1.441,0.793,3.365,1.195,5.717,1.195l0,0c2.097,0,4.085-0.33,5.91-0.979c1.873-0.666,3.314-1.525,4.283-2.553
			c0.963-1.023,1.796-2.523,2.547-4.584c0.663-1.822,0.992-3.338,0.992-4.576c0-0.746-0.119-1.391-0.359-1.941
			c-0.559-1.287-2.136-2.734-4.801-4.48c1.311,0,6.678,0,6.678,0c0.48,0,0.908-0.301,1.072-0.752l0.382-1.051
			c0.69-1.895,1.023-3.311,1.023-4.367c0-0.258-0.02-0.496-0.06-0.713c-0.229-1.266-1.166-2.283-2.784-3.025
			c-1.412-0.645-3.269-0.973-5.521-0.973C102.193,79.749,100.318,80.038,98.656,80.608z M98.372,104.419
			c0.534-0.486,0.97-1.182,1.292-2.068c0.729-2.004,0.809-3.27,0.257-4.104c-0.299-0.434-0.921-1.117-3.206-2.715
			c-1.895-1.342-2.629-1.994-2.909-2.305c-0.298-0.332-0.486-0.834-0.558-1.494c-0.079-0.73,0.11-1.73,0.562-2.973
			c0.681-1.871,1.444-3.234,2.27-4.051c0.822-0.816,1.938-1.471,3.316-1.943c1.424-0.488,3.049-0.736,4.832-0.736
			c1.922,0,3.459,0.258,4.57,0.766c0.619,0.283,1.38,0.75,1.49,1.357c0.014,0.076,0.023,0.18,0.023,0.314
			c0,0.535-0.16,1.582-0.887,3.58c-0.001,0-0.051,0.137-0.109,0.299c-0.967,0-3.35,0-5.076,0c0.057-0.154,0.162-0.443,0.162-0.443
			c0.311-0.85,0.457-1.453,0.457-1.926c0-0.246-0.039-0.457-0.117-0.65c-0.13-0.328-0.576-1.096-1.884-1.096
			c-0.767,0-1.479,0.279-2.06,0.807c-0.516,0.467-0.922,1.119-1.242,1.996c-0.414,1.141-0.52,1.994-0.334,2.689
			c0.178,0.75,0.858,1.469,2.199,2.303c3.568,2.227,4.492,3.457,4.725,3.994c0.217,0.5,0.418,1.793-0.686,4.826
			c-0.633,1.74-1.328,3.018-2.063,3.801c-0.718,0.76-1.858,1.422-3.388,1.967c-1.578,0.562-3.309,0.848-5.145,0.848
			c-1.963,0-3.517-0.309-4.617-0.914c-1.373-0.754-1.429-1.516-1.446-1.766c-0.006-0.072-0.009-0.154-0.009-0.246
			c0-0.688,0.18-1.887,0.915-3.906c0,0,0.189-0.52,0.361-0.994c0.966,0,3.35,0,5.074,0c-0.313,0.861-0.628,1.729-0.628,1.729
			c-0.334,0.914-0.492,1.561-0.492,2.066c0,0.252,0.039,0.469,0.115,0.666c0.166,0.436,0.654,1.164,2.049,1.164
			C97.012,105.261,97.768,104.97,98.372,104.419z M101.42,89.114c0-0.004-0.006-0.031-0.006-0.088c0-0.154,0.035-0.518,0.287-1.211
			c0.232-0.637,0.471-0.943,0.631-1.088c0.021-0.02,0.048-0.012,0.069-0.029c-0.04,0.127-0.081,0.254-0.143,0.424l-0.72,1.977
			c-0.017,0.043-0.014,0.092-0.024,0.137c-0.059-0.068-0.093-0.115-0.095-0.119C101.42,89.116,101.42,89.116,101.42,89.114z
			 M96.659,102.144c0,0,0.78-2.145,1.071-2.943c0.135,0.129,0.214,0.215,0.259,0.271c0.004,0.016,0.012,0.045,0.012,0.139
			c0,0.248-0.066,0.818-0.481,1.959c-0.192,0.529-0.429,0.93-0.684,1.162c-0.13,0.119-0.273,0.176-0.432,0.211
			C96.456,102.745,96.529,102.503,96.659,102.144z"/>
		<path fill="#FDB913" d="M132.525,81.46l-9.67,26.572h-7.07l0.189-12.08l-4.396,12.08h-6.766l9.671-26.572h6.723l0.199,11.965
			l4.354-11.965H132.525z"/>
		<path d="M125.76,80.319c-0.479,0-0.908,0.301-1.072,0.75c0,0-1.123,3.086-2.244,6.166c-0.049-2.895-0.096-5.795-0.096-5.795
			c-0.011-0.623-0.519-1.121-1.141-1.121h-6.723c-0.48,0-0.908,0.301-1.072,0.75l-9.67,26.572c-0.128,0.35-0.076,0.74,0.137,1.045
			c0.214,0.305,0.562,0.486,0.935,0.486h6.766c0.479,0,0.907-0.301,1.072-0.752c0,0,1.042-2.861,2.077-5.707
			c-0.041,2.609-0.084,5.311-0.084,5.318c0,0.299,0.118,0.586,0.328,0.799c0.215,0.219,0.508,0.342,0.812,0.342h7.07
			c0.479,0,0.908-0.301,1.072-0.752l9.67-26.57c0.127-0.35,0.076-0.74-0.137-1.045c-0.215-0.305-0.562-0.486-0.936-0.486H125.76z
			 M130.896,82.601c-0.96,2.639-8.354,22.957-8.84,24.289c-1.025,0-3.711,0-5.112,0c0.03-1.893,0.172-10.932,0.172-10.938
			c0-0.549-0.392-1.023-0.935-1.123c-0.547-0.1-1.088,0.209-1.279,0.732c0,0-3.642,10.008-4.122,11.328c-0.903,0-2.751,0-4.337,0
			c0.959-2.637,8.354-22.955,8.84-24.289c1.006,0,3.467,0,4.801,0c0.031,1.844,0.182,10.842,0.182,10.842
			c0.009,0.551,0.408,1.016,0.951,1.107c0.543,0.09,1.073-0.219,1.261-0.736c0,0,3.601-9.893,4.081-11.213
			C127.463,82.601,129.311,82.601,130.896,82.601z"/>
		<path fill="#FDB913" d="M146.877,97.021c-0.972,2.672-1.734,4.564-2.287,5.676s-1.383,2.127-2.494,3.047
			c-1.11,0.92-2.416,1.627-3.916,2.119c-1.5,0.494-3.129,0.74-4.885,0.74c-1.667,0-3.08-0.234-4.237-0.699
			c-1.159-0.465-1.972-1.164-2.44-2.094c-0.47-0.932-0.582-1.943-0.337-3.039s0.864-3.012,1.862-5.75l1.656-4.551
			c0.973-2.672,1.733-4.562,2.285-5.674c0.553-1.113,1.385-2.127,2.495-3.049c1.11-0.918,2.416-1.625,3.916-2.119
			c1.501-0.492,3.128-0.738,4.886-0.738c1.666,0,3.079,0.232,4.237,0.699c1.157,0.465,1.972,1.162,2.44,2.094
			c0.469,0.93,0.582,1.943,0.336,3.039c-0.244,1.096-0.864,3.012-1.861,5.748L146.877,97.021z M141.996,88.269
			c0.451-1.238,0.656-2.031,0.619-2.377c-0.039-0.346-0.314-0.52-0.826-0.52c-0.434,0-0.817,0.141-1.149,0.42
			c-0.331,0.281-0.746,1.105-1.245,2.477l-4.529,12.443c-0.563,1.549-0.836,2.502-0.815,2.863c0.019,0.363,0.305,0.545,0.856,0.545
			c0.566,0,1.003-0.209,1.312-0.627c0.309-0.416,0.749-1.41,1.32-2.979L141.996,88.269z"/>
		<path d="M138.139,80.544c-1.627,0.535-3.07,1.316-4.287,2.326c-1.229,1.018-2.168,2.168-2.789,3.418
			c-0.572,1.152-1.337,3.047-2.336,5.791c0,0.002-1.656,4.553-1.656,4.553c-1.023,2.809-1.646,4.736-1.904,5.891
			c-0.302,1.352-0.157,2.631,0.432,3.801c0.596,1.182,1.617,2.07,3.035,2.639c1.287,0.518,2.857,0.781,4.662,0.781
			c1.87,0,3.633-0.268,5.24-0.797c1.63-0.535,3.072-1.316,4.289-2.324c1.229-1.018,2.166-2.168,2.788-3.418
			c0.577-1.162,1.341-3.057,2.337-5.793l1.656-4.551c1.022-2.807,1.645-4.734,1.902-5.891c0.303-1.352,0.158-2.631-0.431-3.801
			c-0.595-1.182-1.616-2.068-3.034-2.639c-1.287-0.52-2.857-0.781-4.662-0.781C141.51,79.749,139.747,80.017,138.139,80.544z
			 M129.483,106.845c-0.9-0.361-1.505-0.867-1.849-1.549c-0.35-0.693-0.429-1.439-0.241-2.277c0.232-1.041,0.845-2.928,1.821-5.607
			l1.656-4.551c0.955-2.627,1.707-4.496,2.235-5.557c0.479-0.963,1.219-1.863,2.2-2.678c0.996-0.824,2.188-1.469,3.545-1.914
			c1.377-0.451,2.901-0.682,4.529-0.682c1.512,0,2.795,0.207,3.812,0.617c0.9,0.361,1.504,0.867,1.847,1.549
			c0.351,0.695,0.43,1.439,0.242,2.275c-0.233,1.045-0.846,2.932-1.819,5.607c-0.001,0.002-1.657,4.553-1.657,4.553
			c0.002,0,0.002,0,0.002-0.002c-0.955,2.619-1.707,4.49-2.238,5.559c-0.479,0.963-1.219,1.863-2.199,2.676
			c-0.996,0.824-2.189,1.469-3.545,1.914c-1.378,0.453-2.901,0.684-4.529,0.684C131.782,107.462,130.5,107.253,129.483,106.845z"/>
		<path d="M139.905,84.919c-0.362,0.305-0.832,0.896-1.583,2.961l-4.529,12.443c-0.768,2.107-0.908,2.85-0.883,3.316
			c0.039,0.746,0.586,1.621,1.996,1.621c0.931,0,1.701-0.377,2.229-1.088c0.263-0.354,0.666-1.043,1.477-3.268l4.457-12.246
			c0.674-1.854,0.726-2.486,0.682-2.893c-0.084-0.742-0.643-1.535-1.961-1.535C141.092,84.231,140.439,84.47,139.905,84.919z
			 M135.938,101.103l4.529-12.443c0.42-1.154,0.683-1.645,0.816-1.855c-0.082,0.273-0.188,0.602-0.359,1.076l-4.457,12.244
			c-0.561,1.541-0.883,2.211-1.051,2.508C135.527,102.272,135.689,101.782,135.938,101.103z"/>
		<path fill="#FDB913" d="M153.753,81.46h5.72c3.812,0,6.348,0.127,7.606,0.377c1.259,0.252,2.124,0.895,2.601,1.928
			c0.475,1.033,0.301,2.682-0.523,4.943c-0.752,2.066-1.559,3.455-2.418,4.166c-0.861,0.711-2.201,1.137-4.02,1.279
			c1.477,0.34,2.387,0.795,2.73,1.363s0.496,1.092,0.457,1.568s-0.449,1.787-1.23,3.934l-2.553,7.014h-7.502l3.214-8.832
			c0.518-1.422,0.706-2.303,0.565-2.641c-0.141-0.34-0.771-0.51-1.891-0.51l-4.361,11.982h-8.066L153.753,81.46z M160.158,86.024
			l-2.137,5.867c0.916,0,1.594-0.104,2.039-0.316c0.443-0.211,0.877-0.898,1.3-2.062l0.528-1.451
			c0.305-0.836,0.326-1.385,0.068-1.645C161.697,86.155,161.098,86.024,160.158,86.024z"/>
		<path d="M153.753,80.319c-0.479,0-0.908,0.301-1.071,0.75l-9.671,26.572c-0.128,0.35-0.075,0.74,0.138,1.045
			s0.562,0.486,0.934,0.486h8.066c0.48,0,0.908-0.301,1.072-0.75c0,0,3.194-8.777,3.914-10.756c-0.08,0.287-0.188,0.639-0.372,1.145
			l-3.214,8.83c-0.046,0.127-0.068,0.258-0.068,0.391c0,0.23,0.07,0.459,0.205,0.654c0.215,0.305,0.562,0.486,0.936,0.486h7.502
			c0.48,0,0.908-0.301,1.072-0.752l2.553-7.014c1.084-2.977,1.262-3.822,1.295-4.229c0.007-0.078,0.01-0.158,0.01-0.24
			c0-0.645-0.209-1.32-0.625-2.01c-0.085-0.141-0.209-0.262-0.324-0.387c0.51-0.221,0.979-0.473,1.361-0.789
			c1.028-0.85,1.933-2.373,2.764-4.654c0.567-1.559,0.85-2.871,0.85-3.957c0-0.713-0.121-1.328-0.363-1.854
			c-0.625-1.359-1.805-2.248-3.412-2.568c-1.348-0.27-3.909-0.4-7.83-0.4H153.753z M159.473,82.601c3.717,0,6.201,0.119,7.383,0.355
			c0.898,0.18,1.467,0.588,1.787,1.285c0.078,0.172,0.156,0.455,0.156,0.906c0,0.65-0.162,1.652-0.715,3.172
			c-0.845,2.32-1.594,3.279-2.072,3.674c-0.673,0.557-1.811,0.9-3.382,1.021c-0.562,0.045-1.007,0.492-1.049,1.053
			c-0.003,0.029-0.003,0.059-0.003,0.086c0,0.527,0.363,0.992,0.885,1.111c1.725,0.398,2,0.824,2.012,0.842
			c0.194,0.324,0.297,0.611,0.297,0.832c0,0.018-0.002,0.035-0.002,0.053c-0.008,0.094-0.102,0.713-1.166,3.637
			c0,0-1.622,4.459-2.279,6.262c-0.965,0-3.35,0-5.074,0c0.762-2.092,2.656-7.299,2.656-7.299c0.503-1.381,0.684-2.191,0.684-2.746
			c0-0.299-0.053-0.523-0.135-0.723c-0.449-1.076-1.81-1.213-2.945-1.213c-0.479,0-0.908,0.299-1.072,0.75
			c0,0-3.607,9.912-4.088,11.23c-1.006,0-3.82,0-5.638,0c0.96-2.637,8.354-22.955,8.84-24.289
			C155.734,82.601,159.473,82.601,159.473,82.601z"/>
		<path d="M159.086,85.634l-2.136,5.869c-0.128,0.35-0.076,0.74,0.138,1.045c0.213,0.305,0.562,0.486,0.934,0.486
			c1.1,0,1.928-0.141,2.531-0.43c0.75-0.357,1.331-1.191,1.881-2.701l0.527-1.451c0.174-0.479,0.704-1.934-0.194-2.84
			c-0.501-0.504-1.306-0.729-2.608-0.729C159.679,84.884,159.25,85.183,159.086,85.634z M160.939,87.216c0.004,0,0.01,0,0.013,0.002
			c-0.024,0.111-0.062,0.25-0.136,0.453l-0.528,1.451c-0.124,0.344-0.233,0.592-0.332,0.793
			C160.43,88.616,160.707,87.853,160.939,87.216z"/>
		<path fill="#FDB913" d="M189.482,81.46l-1.943,5.338h-4.857l-7.728,21.234h-8.065l7.727-21.234h-4.77l1.942-5.338H189.482z"/>
		<path d="M171.788,80.319c-0.479,0-0.908,0.301-1.071,0.75l-1.943,5.34c-0.128,0.35-0.076,0.738,0.137,1.045
			c0.214,0.305,0.562,0.486,0.936,0.486c0,0,1.729,0,3.141,0c-0.959,2.637-7.17,19.701-7.17,19.701
			c-0.047,0.127-0.068,0.258-0.068,0.391c0,0.23,0.069,0.459,0.205,0.654c0.215,0.305,0.562,0.486,0.936,0.486h8.065
			c0.479,0,0.908-0.301,1.071-0.752c0,0,6.947-19.084,7.455-20.48c1.115,0,4.059,0,4.059,0c0.48,0,0.908-0.301,1.072-0.752
			l1.943-5.338c0.047-0.127,0.068-0.26,0.068-0.391c0-0.23-0.07-0.461-0.205-0.654c-0.215-0.305-0.562-0.486-0.936-0.486H171.788z
			 M187.854,82.601c-0.455,1.25-0.844,2.318-1.113,3.057c-1.115,0-4.059,0-4.059,0c-0.479,0-0.907,0.301-1.072,0.752
			c0,0-6.945,19.084-7.454,20.48c-1.006,0-3.82,0-5.638,0c0.959-2.635,7.17-19.701,7.17-19.701c0.046-0.127,0.068-0.258,0.068-0.391
			c0-0.23-0.07-0.459-0.205-0.654c-0.215-0.305-0.562-0.486-0.936-0.486c0,0-1.729,0-3.141,0c0.455-1.25,0.844-2.318,1.112-3.057
			C173.902,82.601,185.301,82.601,187.854,82.601z"/>
		<g>
			<path d="M190.851,84.094c0-2.165,1.738-3.913,3.912-3.913c2.165,0,3.913,1.748,3.913,3.913c0,2.164-1.748,3.912-3.913,3.912
				C192.589,88.006,190.851,86.258,190.851,84.094z M197.636,84.094c0-1.748-1.197-2.871-2.873-2.871
				c-1.706,0-2.871,1.123-2.871,2.871c0,1.749,1.165,2.871,2.871,2.871C196.438,86.965,197.636,85.843,197.636,84.094z
				 M196.71,86.216h-1.073l-0.937-1.779h-0.613v1.779h-0.936v-4.213h2.048c1.104,0,1.634,0.291,1.634,1.289
				c0,0.781-0.406,1.094-1.153,1.145L196.71,86.216z M195.21,83.708c0.365,0.011,0.636-0.104,0.636-0.529
				c0-0.49-0.542-0.447-0.844-0.447h-0.915v0.977H195.21z"/>
		</g>
	</g>
	<g>
		<g>
			<g>
				<path fill="#F7A8AA" d="M126.957,35.825c-1.735-2.775-6.593-4.033-10.409-3.34c-14.088,3.25-33.022-1.239-38.109-4.167
					c-0.347,0,0.763-2.768,0.069-3.809c1.04-0.693,1.398-1.16,2.786-0.813c2.429,1.04,5.368,0.608,7.796,0.262
					c-1.393-2.787-2.857-8.15-4.938-11.272c-2.082,1.734-5.259,3.055-7.341,4.443C72.975,6.766,59.989,4.881,49.494,10.887
					c-0.301,0.173-0.585,0.13-0.585,0.13s-2.819-5.985-4.033-8.761c-3.752,2.234-7.026,5.248-8.479,5.248
					c-2.819,0-6.244-0.022-9.021-0.369c0,4.857,1.865,10.452,2.082,14.594c-4.163,4.163-8.326,8.327-11.103,13.53
					c-3.079-0.715-6.477-1.19-9.628,0.131c-2.017,0.846-4.357,3.368-3.556,6.114c0.455,1.562,2.428,3.188,6.244,4.164
					c-7.48,7.242-11.254,22.245-4.51,27.404c-1.734,1.734-3.777,3.369-4.38,5.617c-0.803,2.992,0.915,4.07,2.992,4.445
					c3.838,0.693,6.636-1.193,9.411-2.928c5.984,3.557,10.04,3.297,16.957,3.621c0.693,0.033,2.32,2.082,2.32,2.082
					s-4.672-0.531-7.091,0.195c-3.253,0.975-6.088,4.037-3.838,6.678c3.36,3.947,9.801,5.4,15.634,3.947
					c3.535,3.795,1.887,9.953-4.055,12.426c5.204-0.348,11.211-3.816,11.84-11.016c0.121-1.383-0.673-3.557-1.713-4.598
					c-0.694-0.693-1.648-1.734-1.648-1.734s2.926-5.568-3.122-8.674c2.404-0.482,6.938-2.43,6.938-2.43s1.836,2.143,3.47,2.43
					c1.742,0.305,3.84-0.686,4.511-2.43c0.98-2.553-2.082-4.51-2.082-4.51l2.429-3.816c0,0,2.095,1.982,3.047,3.574
					c2.964,4.957,3.545,9.957,6.32,14.814c1.388,2.428,3.838,4.424,6.267,5.465c2.082,0.693,4.359,0.824,6.701,0.412
					c3.923-0.691,7.004-1.996,9.259-3.34c15.507-9.242,26.374-21.295,35.763-38.399C125.301,50.416,130.426,41.376,126.957,35.825z
					 M82.889,15.138c0,0,0.923,1.614,1.388,2.775c0.693,1.735,2.041,5.051,2.041,5.051l-2.801-0.469l-2.622-1.877
					c0,0-0.372,1.38-1.822,2.499c-0.703-2.03,0.815-3.051-1.31-5.328C79.497,16.75,82.889,15.138,82.889,15.138z M44.724,98.228
					c0.637,3.701-2.66,7.459-4.915,8.904c1.966-3.064,3.874-4.395,1.619-10.697c-0.89-2.488-3.123-4.279-5.378-5.781
					c-0.693-0.463-1.652-0.775-2.718-1.041c-1.156-0.291-2.429,0.578-3.469,1.617c0,0,3.296,1.621,6.129,2.141
					c1.619,2.141-1.619,2.197-1.619,2.197c-0.347,0.346-9.396-0.912-8.789-5.318c0.231-1.68,3.643-4.916,10.466-2.256
					C39.819,89.462,44.13,94.771,44.724,98.228z M40.907,85.216c1.701,0.775,1.735,2.777,1.735,4.512
					c0,0.348-0.348,0.348-0.694,0.693c-1.099-1.908-2.833-2.834-4.511-4.162c-0.384-0.305-0.578-0.406-0.23-0.752
					C38.247,84.464,39.636,84.638,40.907,85.216z M53.552,79.284c-0.646,2.426-2.899,2.012-3.124,0.781
					c-0.197-1.078,1.122-1.4,1.589-1.93C52.395,78.333,53.642,78.95,53.552,79.284z M66.705,85.642
					c-3.729-11.232-14.139-21.509-19.19-24.46c-0.3-0.174-0.933,0.76-0.933,0.76s4.554,4.271,5.248,7.394
					c0.694,2.777-0.867,5.748-2.603,7.828c-6.938,6.594-16.35,5.291-25.283,4.662c-2.791-0.195-6.874-2.08-4.728-6.244
					c-3.123,2.428-7.98,6.961-11.493,5.551c-0.681-0.273-1.713-2.008-0.962-3.594c1.266-2.672,5.507-6.871,9.22-8.736
					c0.197-0.377-0.286-1.04-1.65-0.412c-1.409,0.648-4.204,3.35-5.327,2.797C2.672,68.075,6.729,56.44,8.808,52.6
					c2.583-4.771,5.875-5.622,9.345-6.663c-4.126-0.735-7.282-1.165-9.364-3.247c-1.04-1.388-0.544-2.471,0.497-3.859
					c1.041-1.04,2.229-1.755,3.701-2.186c1.386-0.405,2.607-0.239,3.964,0.054c3.408,0.735,3.593,2.464,5.327,2.117
					c-0.362-0.777-2.109-2.45-1.774-3.149c1.676-3.503,4.433-7.223,8.209-10.395c0.471-0.396,0.888-0.489,1.582-0.489
					c1.04,0.347,0.64,1.394,1.242,2.41c1.032,1.74,3.896,1.727,5.63,0.339c3.47-2.775,4.638-7.981,6.025-12.145
					c0-0.347,1.13-2.523-0.772-1.905c-0.922,3.807-2.429,6.939-4.511,10.408c-1.041,1.388-2.246,2.66-3.98,1.966
					c-0.347-0.347-1.073-0.539-1.224-1.618C32.011,19.264,30.99,9.965,30.99,9.965s4.832,0.64,6.646,0.226
					c1.073-0.245,3.483-3.101,5.913-4.142c1.734,2.428,3.351,4.726,4.857,7.117c6.938-3.123,15.09-5.637,22.029-0.433
					c2.429,2.082,5.008,4.674,5.831,6.995c0.625,1.757,1.019,6.1,0.552,9.405c5.898,3.122,11.73,4.884,18.335,6.207
					c2.943,0.59,5.168,0.832,8.047,1.061c1.426,0.113,4.746,0.582,11.388-0.583c-13.535,2.775-24.465,11.467-33.658,22.072
					C76.42,63.09,68.268,75.815,67.204,80.374C66.749,82.325,66.618,83.345,66.705,85.642z M122.1,51.221
					c-2.256,6.697-8.11,15.457-14.14,22.026c-5.601,6.102-21.521,20.73-32.722,20.111c-5.242-0.289-7.304-5.705-5.418-11.727
					C73.405,70.183,89.191,47,109.262,38.687c4.168-1.727,11.536-2.516,13.184-0.304C124.824,41.575,123.5,47.061,122.1,51.221z"/>
			</g>
		</g>
		<g>
			<g>
				<path fill="#F7A8AA" d="M126.957,35.825c-1.735-2.775-6.593-4.033-10.409-3.34c-14.088,3.25-33.022-1.239-38.109-4.167
					c-0.347,0,0.763-2.768,0.069-3.809c1.04-0.693,1.398-1.16,2.786-0.813c2.429,1.04,5.368,0.608,7.796,0.262
					c-1.393-2.787-2.857-8.15-4.938-11.272c-2.082,1.734-5.259,3.055-7.341,4.443C72.975,6.766,59.989,4.881,49.494,10.887
					c-0.301,0.173-0.585,0.13-0.585,0.13s-2.819-5.985-4.033-8.761c-3.752,2.234-7.026,5.248-8.479,5.248
					c-2.819,0-6.244-0.022-9.021-0.369c0,4.857,1.865,10.452,2.082,14.594c-4.163,4.163-8.326,8.327-11.103,13.53
					c-3.079-0.715-6.477-1.19-9.628,0.131c-2.017,0.846-4.357,3.368-3.556,6.114c0.455,1.562,2.428,3.188,6.244,4.164
					c-7.48,7.242-11.254,22.245-4.51,27.404c-1.734,1.734-3.777,3.369-4.38,5.617c-0.803,2.992,0.915,4.07,2.992,4.445
					c3.838,0.693,6.636-1.193,9.411-2.928c5.984,3.557,10.04,3.297,16.957,3.621c0.693,0.033,2.32,2.082,2.32,2.082
					s-4.672-0.531-7.091,0.195c-3.253,0.975-6.088,4.037-3.838,6.678c3.36,3.947,9.801,5.4,15.634,3.947
					c3.535,3.795,1.887,9.953-4.055,12.426c5.204-0.348,11.211-3.816,11.84-11.016c0.121-1.383-0.673-3.557-1.713-4.598
					c-0.694-0.693-1.648-1.734-1.648-1.734s2.926-5.568-3.122-8.674c2.404-0.482,6.938-2.43,6.938-2.43s1.836,2.143,3.47,2.43
					c1.742,0.305,3.84-0.686,4.511-2.43c0.98-2.553-2.082-4.51-2.082-4.51l2.429-3.816c0,0,2.095,1.982,3.047,3.574
					c2.964,4.957,3.545,9.957,6.32,14.814c1.388,2.428,3.838,4.424,6.267,5.465c2.082,0.693,4.359,0.824,6.701,0.412
					c3.923-0.691,7.004-1.996,9.259-3.34c15.507-9.242,26.374-21.295,35.763-38.4C125.301,50.416,130.426,41.376,126.957,35.825z
					 M122.1,51.221c-2.256,6.697-8.11,15.457-14.14,22.026c-5.601,6.102-21.521,20.73-32.722,20.111
					c-5.242-0.289-7.304-5.705-5.418-11.727C73.405,70.183,89.191,47,109.262,38.687c4.168-1.727,11.536-2.516,13.184-0.304
					C124.824,41.575,123.5,47.061,122.1,51.221z"/>
			</g>
		</g>
		<path fill="#FAC6C5" d="M70.86,93.413c5.266,5.768,23.165-2.191,37.097-18.646c13.795-16.298,20.502-33.295,16.539-38.073
			c-3.477-4.192-24.738,1.331-39.873,18.77C70.495,71.741,63.979,85.876,70.86,93.413z"/>
		<g>
			<path fill="#FCDDDB" d="M58.255,23.43c-0.815-2.038-1.311-5.963,0.425-6.657c1.202-0.172,2.021,0.195,2.599-0.397
				c0.59-0.605,0.863-1.763,2.181-2.314c4.162-1.74,9.021,0.694,10.756,4.511c1.734,3.816,1.673,9.216-2.144,10.95
				C67.214,31.605,60.337,28.634,58.255,23.43z"/>
			<path fill="#FCDDDB" d="M117.646,40.604c0-1.041-0.578-2.255,0.809-2.949c1.736-0.347,3.596,0.507,4.223,1.793
				c4.453,9.136-6.997,24.744-14.168,33.36c-6.344,7.619-15.387,14.631-25.101,19.141c-3.817,1.387-8.963,3.18-12.086-0.289
				c2.082-3.816,7.314-1.279,10.756-2.775c1.33-0.578,5.956-4.164,8.691-6.723c-0.693,1.389,11.202-7.734,16.408-15.021
				c3.818-4.857,7.345-9.48,9.774-14.683c0.693-1.387,2.602-0.867,3.295-2.255c0-0.347,0.752-1.156,0.059-1.156
				c-1.735,0-2.486,1.099-3.932,1.908c0-1.388,1.619-2.312,2.602-4.163c-0.348,0.347-0.752-1.099,0.058-2.834
				C118.803,42.455,117.646,42.686,117.646,40.604z"/>
			<path fill="#FCDDDB" d="M100.828,50.568c-8.282,7.145-16.021,17.644-21.346,27.847c-2.368,4.537-2.309,9.555-2.366,9.268
				c-2.775-4.51,0.71-12.131,2.303-14.643c8.246-13.011,20.066-29.429,34.585-29.95C109.492,44.131,104.193,47.664,100.828,50.568z"
				/>
		</g>
		<path fill="#F59298" d="M20.524,73.108c3.446-3.445,7.286-2.264,8.172-1.574c0.887,0.689,2.462,4.43,3.841,4.924
			c1.378,0.492,5.514,2.658,10.338,0.492c4.825-2.168,6.695-4.234,6.794-6.695c0.099-2.462,0.886-2.266-2.067-4.825
			c-2.954-2.561-3.15-2.068-4.727-3.348c-1.575-1.279-1.674-2.756-0.492-4.43c1.182-1.672,4.431-1.279,6.893,0.197
			c2.461,1.477,7.089,5.02,7.68,5.512s6.893,5.81,8.665,5.81c1.771,0,2.166,0.197,3.938-0.984c1.772-1.181,1.28-0.493,3.544-2.067
			c2.265-1.576,3.25-2.363,3.25-2.363l-4.628,9.157l-3.644,9.846l-1.182,4.137l-4.135-5.91l-1.97-4.725l-3.544-2.955l-2.265-2.264
			l-1.97,2.166l-3.053,5.021l-12.405,4.824l-8.566-0.197l-7.483-0.689l-4.037-3.348"/>
		<path fill="#F59298" d="M25.025,47.963c1.01,4.61-9.944,4.534-8.755,11.312c0.459,2.617,2.315,1.18,3.363,2.494
			c1.043,1.309,1.265,2.625,0.674,3.807s-1.545,2.143-2.363,2.362c-1.435,0.385-1.182-0.296-2.363,0.197
			c-1.182,0.492-1.772,1.182-1.772,1.182l-3.348,2.166l-1.477,1.082l-3.053-2.264l-1.477-3.644l0.591-7.088l1.575-5.413l2.855-4.922
			l2.757-2.658l3.741-0.493c0,0,1.665-0.271,3.841-0.295C23.024,45.753,24.686,46.414,25.025,47.963z"/>
		<path fill="#F59298" d="M20.899,37.423l8.038,7.46c0,0,1.272,1.329,2.718,1.561s2.833,0.579,4.048-2.081
			c1.214-2.66,0.982-4.164,1.099-5.493c0.115-1.331-0.058-3.701,0.115-5.378c0.174-1.677,0.926-3.181,1.908-3.99
			c0.983-0.81,1.157-1.793,3.238-3.181c2.082-1.388,2.66-1.966,3.47-3.064s0.983-4.105,0.868-4.857
			c-0.116-0.751,0.058-3.296-0.174-3.99c-0.231-0.694-0.521-1.793-1.157-1.909c-0.636-0.115-0.809,0-1.099,0.81
			c-0.289,0.81-1.156,2.255-1.156,2.255L42.18,16.78l-1.446,2.486l-1.33,2.775l-0.52,1.157l-1.908,2.371l-1.735,1.099l-1.792,0.347
			l-1.908-3.007l-1.677-0.405l-1.678,0.694l-3.989,4.452l-4.568,5.841l0.231,1.677"/>
		<g>
			<g>
				<path d="M126.957,35.825c-1.735-2.775-6.593-4.033-10.409-3.34c-14.088,3.25-33.022-1.239-38.109-4.167
					c-0.347,0,0.763-2.768,0.069-3.809c1.04-0.693,1.398-1.16,2.786-0.813c2.429,1.04,5.368,0.608,7.796,0.262
					c-1.393-2.787-2.857-8.15-4.938-11.272c-2.082,1.734-5.259,3.055-7.341,4.443C72.975,6.766,59.989,4.881,49.494,10.887
					c-0.301,0.173-0.585,0.13-0.585,0.13s-2.819-5.985-4.033-8.761c-3.752,2.234-7.026,5.248-8.479,5.248
					c-2.819,0-6.244-0.022-9.021-0.369c0,4.857,1.865,10.452,2.082,14.594c-4.163,4.163-8.326,8.327-11.103,13.53
					c-3.079-0.715-6.477-1.19-9.628,0.131c-2.017,0.846-4.357,3.368-3.556,6.114c0.455,1.562,2.428,3.188,6.244,4.164
					c-7.48,7.242-11.254,22.245-4.51,27.404c-1.734,1.734-3.777,3.369-4.38,5.617c-0.803,2.992,0.915,4.07,2.992,4.445
					c3.838,0.693,6.636-1.193,9.411-2.928c5.984,3.557,10.04,3.297,16.957,3.621c0.693,0.033,2.32,2.082,2.32,2.082
					s-4.672-0.531-7.091,0.195c-3.253,0.975-6.088,4.037-3.838,6.678c3.36,3.947,9.801,5.4,15.634,3.947
					c3.535,3.795,1.887,9.953-4.055,12.426c5.204-0.348,11.211-3.816,11.84-11.016c0.121-1.383-0.673-3.557-1.713-4.598
					c-0.694-0.693-1.648-1.734-1.648-1.734s2.926-5.568-3.122-8.674c2.404-0.482,6.938-2.43,6.938-2.43s1.836,2.143,3.47,2.43
					c1.742,0.305,3.84-0.686,4.511-2.43c0.98-2.553-2.082-4.51-2.082-4.51l2.429-3.816c0,0,2.095,1.982,3.047,3.574
					c2.964,4.957,3.545,9.957,6.32,14.814c1.388,2.428,3.838,4.424,6.267,5.465c2.082,0.693,4.359,0.824,6.701,0.412
					c3.923-0.691,7.004-1.996,9.259-3.34c15.507-9.242,26.374-21.295,35.763-38.399C125.301,50.416,130.426,41.376,126.957,35.825z
					 M82.889,15.138c0,0,0.923,1.614,1.388,2.775c0.693,1.735,2.041,5.051,2.041,5.051l-2.801-0.469l-2.622-1.877
					c0,0-0.372,1.38-1.822,2.499c-0.703-2.03,0.815-3.051-1.31-5.328C79.497,16.75,82.889,15.138,82.889,15.138z M44.724,98.228
					c0.637,3.701-2.66,7.459-4.915,8.904c1.966-3.064,3.874-4.395,1.619-10.697c-0.89-2.488-3.123-4.279-5.378-5.781
					c-0.693-0.463-1.652-0.775-2.718-1.041c-1.156-0.291-2.429,0.578-3.469,1.617c0,0,3.296,1.621,6.129,2.141
					c1.619,2.141-1.619,2.197-1.619,2.197c-0.347,0.346-9.396-0.912-8.789-5.318c0.231-1.68,3.643-4.916,10.466-2.256
					C39.819,89.462,44.13,94.771,44.724,98.228z M40.907,85.216c1.701,0.775,1.735,2.777,1.735,4.512
					c0,0.348-0.348,0.348-0.694,0.693c-1.099-1.908-2.833-2.834-4.511-4.162c-0.384-0.305-0.578-0.406-0.23-0.752
					C38.247,84.464,39.636,84.638,40.907,85.216z M53.552,79.284c-0.646,2.426-2.899,2.012-3.124,0.781
					c-0.197-1.078,1.122-1.4,1.589-1.93C52.395,78.333,53.642,78.95,53.552,79.284z M66.705,85.642
					c-3.729-11.232-14.139-21.509-19.19-24.46c-0.3-0.174-0.933,0.76-0.933,0.76s4.554,4.271,5.248,7.394
					c0.694,2.777-0.867,5.748-2.603,7.828c-6.938,6.594-16.35,5.291-25.283,4.662c-2.791-0.195-6.874-2.08-4.728-6.244
					c-3.123,2.428-7.98,6.961-11.493,5.551c-0.681-0.273-1.713-2.008-0.962-3.594c1.266-2.672,5.507-6.871,9.22-8.736
					c0.197-0.377-0.286-1.04-1.65-0.412c-1.409,0.648-4.204,3.35-5.327,2.797C2.672,68.075,6.729,56.44,8.808,52.6
					c2.583-4.771,5.875-5.622,9.345-6.663c-4.126-0.735-7.282-1.165-9.364-3.247c-1.04-1.388-0.544-2.471,0.497-3.859
					c1.041-1.04,2.229-1.755,3.701-2.186c1.386-0.405,2.607-0.239,3.964,0.054c3.408,0.735,3.593,2.464,5.327,2.117
					c-0.362-0.777-2.109-2.45-1.774-3.149c1.676-3.503,4.433-7.223,8.209-10.395c0.471-0.396,0.888-0.489,1.582-0.489
					c1.04,0.347,0.64,1.394,1.242,2.41c1.032,1.74,3.896,1.727,5.63,0.339c3.47-2.775,4.638-7.981,6.025-12.145
					c0-0.347,1.13-2.523-0.772-1.905c-0.922,3.807-2.429,6.939-4.511,10.408c-1.041,1.388-2.246,2.66-3.98,1.966
					c-0.347-0.347-1.073-0.539-1.224-1.618C32.011,19.264,30.99,9.965,30.99,9.965s4.832,0.64,6.646,0.226
					c1.073-0.245,3.483-3.101,5.913-4.142c1.734,2.428,3.351,4.726,4.857,7.117c6.938-3.123,15.09-5.637,22.029-0.433
					c2.429,2.082,5.008,4.674,5.831,6.995c0.625,1.757,1.019,6.1,0.552,9.405c5.898,3.122,11.73,4.884,18.335,6.207
					c2.943,0.59,5.168,0.832,8.047,1.061c1.426,0.113,4.746,0.582,11.388-0.583c-13.535,2.775-24.465,11.467-33.658,22.072
					C76.42,63.09,68.268,75.815,67.204,80.374C66.749,82.325,66.618,83.345,66.705,85.642z M122.1,51.221
					c-2.256,6.697-8.11,15.457-14.14,22.026c-5.601,6.102-21.521,20.73-32.722,20.111c-5.242-0.289-7.304-5.705-5.418-11.727
					C73.405,70.183,89.191,47,109.262,38.687c4.168-1.727,11.536-2.516,13.184-0.304C124.824,41.575,123.5,47.061,122.1,51.221z"/>
			</g>
		</g>
		<path d="M66.521,17c-2.78-2.744-6.733,6.751-7.815,3.355c2.285-2.285,4.873-6.25,8.327-5.625c4.244,0.769,0.859,6.477,3.056,8.124
			c0.681,0.512,1.481-2.379,2.635-1.189c-1.043,2.8-3.806,1.537-3.806,1.537s-0.915,4.281-2.216,3.246
			c-0.149-0.448,0.383-0.906,0.624-1.618c0.373-1.103,0.474-2.357-0.439-1.609c-0.611,0.502-1.457,1.738-0.951,3.348
			c0.083,0.264,1.317,0.659,0.513,1.152c-0.44,0.46-1.391-0.127-1.649-0.892c-0.865-2.55,1.356-5.64,3.332-4.926
			C67.563,20.532,67.671,18.135,66.521,17z"/>
		<g>
			<g>
				<path d="M74.318,24.925c0-0.381-0.381-1.143-1.143-0.762c-0.381,0.381-0.856,0.546-1.02,1.29
					c-0.164,0.75-0.856,1.781-0.476,2.543C73.204,28.757,74.699,26.449,74.318,24.925z M73.528,25.984
					c-0.055,0.658-0.146,0.585-0.457,1.098c-0.312,0.513-0.439,0.091-0.53-0.33c-0.092-0.42,0.091-0.53,0.292-1.207
					c0.172-0.578,0.341-0.507,0.423-0.514C73.639,24.996,73.583,25.325,73.528,25.984z"/>
			</g>
		</g>
		<path d="M91.562,60.238c6.076-7.423,15.212-16.201,22.443-17.323c-0.186,3.205-4.482,1.644-4.83,4.072
			c-0.348,1.388-1.373,2.131-2.322,3.883c-4.258,7.874-9.99,13.26-15.489,19.96c-10.147,12.361-12.625,9.586-14.065,16.256
			C76.409,78.95,85.317,67.869,91.562,60.238z"/>
		<path d="M103.709,62.318c2.877-3.729,9.514-10.794,16.453-13.223c0.81,1.027-2.74,2.159-2.92,2.472
			c-5.74,9.986-7.289,11.009-11.668,16.793c-8.287,10.943-14.215,12.244-15.4,17.578C89.957,79.665,98.279,69.354,103.709,62.318z"
			/>
		<path d="M41.785,71.46c-0.694-1.736,1.826-3.763,3.049-2.939C44.201,69.427,43.104,71.28,41.785,71.46z"/>
		<path fill="#FDB913" d="M110.115,89.487h-7.504l0.719-1.975c0.336-0.922,0.454-1.51,0.354-1.762s-0.377-0.379-0.825-0.379
			c-0.487,0-0.919,0.17-1.292,0.51c-0.375,0.34-0.686,0.854-0.938,1.543c-0.322,0.887-0.424,1.555-0.304,2.004
			c0.106,0.449,0.673,0.99,1.698,1.627c2.937,1.834,4.66,3.336,5.17,4.51s0.289,3.062-0.66,5.672
			c-0.689,1.896-1.459,3.293-2.305,4.191c-0.848,0.898-2.127,1.652-3.836,2.26c-1.709,0.609-3.553,0.914-5.527,0.914
			c-2.167,0-3.89-0.352-5.167-1.055c-1.277-0.701-1.956-1.596-2.034-2.684c-0.079-1.086,0.244-2.627,0.972-4.625l0.635-1.744h7.503
			l-1.186,3.258c-0.366,1.004-0.494,1.65-0.384,1.936c0.109,0.287,0.438,0.432,0.983,0.432s1.018-0.182,1.416-0.545
			c0.398-0.361,0.729-0.902,0.988-1.615c0.572-1.572,0.697-2.6,0.377-3.084c-0.333-0.482-1.303-1.287-2.908-2.41
			c-1.602-1.133-2.635-1.959-3.101-2.473c-0.466-0.516-0.748-1.229-0.846-2.139c-0.099-0.908,0.11-2.072,0.625-3.484
			c0.741-2.039,1.587-3.529,2.538-4.471c0.949-0.943,2.2-1.682,3.749-2.213c1.548-0.531,3.283-0.797,5.202-0.797
			c2.098,0,3.779,0.291,5.045,0.869c1.267,0.58,1.979,1.311,2.138,2.191s-0.146,2.377-0.914,4.488L110.115,89.487z"/>
		<path d="M98.656,80.608c-1.709,0.586-3.115,1.422-4.184,2.48c-1.08,1.07-1.998,2.672-2.806,4.891
			c-0.48,1.32-0.718,2.445-0.718,3.414c0,0.201,0.01,0.396,0.031,0.584c0.123,1.148,0.504,2.084,1.133,2.779
			c0.521,0.576,1.582,1.43,3.229,2.598c-1.874,0-6.071,0-6.071,0c-0.479,0-0.908,0.301-1.072,0.75l-0.635,1.746
			c-0.706,1.939-1.052,3.477-1.052,4.682c0,0.143,0.005,0.281,0.015,0.416c0.107,1.49,0.99,2.701,2.622,3.6
			c1.441,0.793,3.365,1.195,5.717,1.195l0,0c2.097,0,4.085-0.33,5.91-0.979c1.873-0.666,3.314-1.525,4.283-2.553
			c0.963-1.023,1.796-2.523,2.547-4.584c0.663-1.822,0.992-3.338,0.992-4.576c0-0.746-0.119-1.391-0.359-1.941
			c-0.559-1.287-2.136-2.734-4.801-4.48c1.311,0,6.678,0,6.678,0c0.48,0,0.908-0.301,1.072-0.752l0.382-1.051
			c0.69-1.895,1.023-3.311,1.023-4.367c0-0.258-0.02-0.496-0.06-0.713c-0.229-1.266-1.166-2.283-2.784-3.025
			c-1.412-0.645-3.269-0.973-5.521-0.973C102.193,79.749,100.318,80.038,98.656,80.608z M98.372,104.419
			c0.534-0.486,0.97-1.182,1.292-2.068c0.729-2.004,0.809-3.27,0.257-4.104c-0.299-0.434-0.921-1.117-3.206-2.715
			c-1.895-1.342-2.629-1.994-2.909-2.305c-0.298-0.332-0.486-0.834-0.558-1.494c-0.079-0.73,0.11-1.73,0.562-2.973
			c0.681-1.871,1.444-3.234,2.27-4.051c0.822-0.816,1.938-1.471,3.316-1.943c1.424-0.488,3.049-0.736,4.832-0.736
			c1.922,0,3.459,0.258,4.57,0.766c0.619,0.283,1.38,0.75,1.49,1.357c0.014,0.076,0.023,0.18,0.023,0.314
			c0,0.535-0.16,1.582-0.887,3.58c-0.001,0-0.051,0.137-0.109,0.299c-0.967,0-3.35,0-5.076,0c0.057-0.154,0.162-0.443,0.162-0.443
			c0.311-0.85,0.457-1.453,0.457-1.926c0-0.246-0.039-0.457-0.117-0.65c-0.13-0.328-0.576-1.096-1.884-1.096
			c-0.767,0-1.479,0.279-2.06,0.807c-0.516,0.467-0.922,1.119-1.242,1.996c-0.414,1.141-0.52,1.994-0.334,2.689
			c0.178,0.75,0.858,1.469,2.199,2.303c3.568,2.227,4.492,3.457,4.725,3.994c0.217,0.5,0.418,1.793-0.686,4.826
			c-0.633,1.74-1.328,3.018-2.063,3.801c-0.718,0.76-1.858,1.422-3.388,1.967c-1.578,0.562-3.309,0.848-5.145,0.848
			c-1.963,0-3.517-0.309-4.617-0.914c-1.373-0.754-1.429-1.516-1.446-1.766c-0.006-0.072-0.009-0.154-0.009-0.246
			c0-0.688,0.18-1.887,0.915-3.906c0,0,0.189-0.52,0.361-0.994c0.966,0,3.35,0,5.074,0c-0.313,0.861-0.628,1.729-0.628,1.729
			c-0.334,0.914-0.492,1.561-0.492,2.066c0,0.252,0.039,0.469,0.115,0.666c0.166,0.436,0.654,1.164,2.049,1.164
			C97.012,105.261,97.768,104.97,98.372,104.419z M101.42,89.114c0-0.004-0.006-0.031-0.006-0.088c0-0.154,0.035-0.518,0.287-1.211
			c0.232-0.637,0.471-0.943,0.631-1.088c0.021-0.02,0.048-0.012,0.069-0.029c-0.04,0.127-0.081,0.254-0.143,0.424l-0.72,1.977
			c-0.017,0.043-0.014,0.092-0.024,0.137c-0.059-0.068-0.093-0.115-0.095-0.119C101.42,89.116,101.42,89.116,101.42,89.114z
			 M96.659,102.144c0,0,0.78-2.145,1.071-2.943c0.135,0.129,0.214,0.215,0.259,0.271c0.004,0.016,0.012,0.045,0.012,0.139
			c0,0.248-0.066,0.818-0.481,1.959c-0.192,0.529-0.429,0.93-0.684,1.162c-0.13,0.119-0.273,0.176-0.432,0.211
			C96.456,102.745,96.529,102.503,96.659,102.144z"/>
		<path fill="#FDB913" d="M132.525,81.46l-9.67,26.572h-7.07l0.189-12.08l-4.396,12.08h-6.766l9.671-26.572h6.723l0.199,11.965
			l4.354-11.965H132.525z"/>
		<path d="M125.76,80.319c-0.479,0-0.908,0.301-1.072,0.75c0,0-1.123,3.086-2.244,6.166c-0.049-2.895-0.096-5.795-0.096-5.795
			c-0.011-0.623-0.519-1.121-1.141-1.121h-6.723c-0.48,0-0.908,0.301-1.072,0.75l-9.67,26.572c-0.128,0.35-0.076,0.74,0.137,1.045
			c0.214,0.305,0.562,0.486,0.935,0.486h6.766c0.479,0,0.907-0.301,1.072-0.752c0,0,1.042-2.861,2.077-5.707
			c-0.041,2.609-0.084,5.311-0.084,5.318c0,0.299,0.118,0.586,0.328,0.799c0.215,0.219,0.508,0.342,0.812,0.342h7.07
			c0.479,0,0.908-0.301,1.072-0.752l9.67-26.57c0.127-0.35,0.076-0.74-0.137-1.045c-0.215-0.305-0.562-0.486-0.936-0.486H125.76z
			 M130.896,82.601c-0.96,2.639-8.354,22.957-8.84,24.289c-1.025,0-3.711,0-5.112,0c0.03-1.893,0.172-10.932,0.172-10.938
			c0-0.549-0.392-1.023-0.935-1.123c-0.547-0.1-1.088,0.209-1.279,0.732c0,0-3.642,10.008-4.122,11.328c-0.903,0-2.751,0-4.337,0
			c0.959-2.637,8.354-22.955,8.84-24.289c1.006,0,3.467,0,4.801,0c0.031,1.844,0.182,10.842,0.182,10.842
			c0.009,0.551,0.408,1.016,0.951,1.107c0.543,0.09,1.073-0.219,1.261-0.736c0,0,3.601-9.893,4.081-11.213
			C127.463,82.601,129.311,82.601,130.896,82.601z"/>
		<path fill="#FDB913" d="M146.877,97.021c-0.972,2.672-1.734,4.564-2.287,5.676s-1.383,2.127-2.494,3.047
			c-1.11,0.92-2.416,1.627-3.916,2.119c-1.5,0.494-3.129,0.74-4.885,0.74c-1.667,0-3.08-0.234-4.237-0.699
			c-1.159-0.465-1.972-1.164-2.44-2.094c-0.47-0.932-0.582-1.943-0.337-3.039s0.864-3.012,1.862-5.75l1.656-4.551
			c0.973-2.672,1.733-4.562,2.285-5.674c0.553-1.113,1.385-2.127,2.495-3.049c1.11-0.918,2.416-1.625,3.916-2.119
			c1.501-0.492,3.128-0.738,4.886-0.738c1.666,0,3.079,0.232,4.237,0.699c1.157,0.465,1.972,1.162,2.44,2.094
			c0.469,0.93,0.582,1.943,0.336,3.039c-0.244,1.096-0.864,3.012-1.861,5.748L146.877,97.021z M141.996,88.269
			c0.451-1.238,0.656-2.031,0.619-2.377c-0.039-0.346-0.314-0.52-0.826-0.52c-0.434,0-0.817,0.141-1.149,0.42
			c-0.331,0.281-0.746,1.105-1.245,2.477l-4.529,12.443c-0.563,1.549-0.836,2.502-0.815,2.863c0.019,0.363,0.305,0.545,0.856,0.545
			c0.566,0,1.003-0.209,1.312-0.627c0.309-0.416,0.749-1.41,1.32-2.979L141.996,88.269z"/>
		<path d="M138.139,80.544c-1.627,0.535-3.07,1.316-4.287,2.326c-1.229,1.018-2.168,2.168-2.789,3.418
			c-0.572,1.152-1.337,3.047-2.336,5.791c0,0.002-1.656,4.553-1.656,4.553c-1.023,2.809-1.646,4.736-1.904,5.891
			c-0.302,1.352-0.157,2.631,0.432,3.801c0.596,1.182,1.617,2.07,3.035,2.639c1.287,0.518,2.857,0.781,4.662,0.781
			c1.87,0,3.633-0.268,5.24-0.797c1.63-0.535,3.072-1.316,4.289-2.324c1.229-1.018,2.166-2.168,2.788-3.418
			c0.577-1.162,1.341-3.057,2.337-5.793l1.656-4.551c1.022-2.807,1.645-4.734,1.902-5.891c0.303-1.352,0.158-2.631-0.431-3.801
			c-0.595-1.182-1.616-2.068-3.034-2.639c-1.287-0.52-2.857-0.781-4.662-0.781C141.51,79.749,139.747,80.017,138.139,80.544z
			 M129.483,106.845c-0.9-0.361-1.505-0.867-1.849-1.549c-0.35-0.693-0.429-1.439-0.241-2.277c0.232-1.041,0.845-2.928,1.821-5.607
			l1.656-4.551c0.955-2.627,1.707-4.496,2.235-5.557c0.479-0.963,1.219-1.863,2.2-2.678c0.996-0.824,2.188-1.469,3.545-1.914
			c1.377-0.451,2.901-0.682,4.529-0.682c1.512,0,2.795,0.207,3.812,0.617c0.9,0.361,1.504,0.867,1.847,1.549
			c0.351,0.695,0.43,1.439,0.242,2.275c-0.233,1.045-0.846,2.932-1.819,5.607c-0.001,0.002-1.657,4.553-1.657,4.553
			c0.002,0,0.002,0,0.002-0.002c-0.955,2.619-1.707,4.49-2.238,5.559c-0.479,0.963-1.219,1.863-2.199,2.676
			c-0.996,0.824-2.189,1.469-3.545,1.914c-1.378,0.453-2.901,0.684-4.529,0.684C131.782,107.462,130.5,107.253,129.483,106.845z"/>
		<path d="M139.905,84.919c-0.362,0.305-0.832,0.896-1.583,2.961l-4.529,12.443c-0.768,2.107-0.908,2.85-0.883,3.316
			c0.039,0.746,0.586,1.621,1.996,1.621c0.931,0,1.701-0.377,2.229-1.088c0.263-0.354,0.666-1.043,1.477-3.268l4.457-12.246
			c0.674-1.854,0.726-2.486,0.682-2.893c-0.084-0.742-0.643-1.535-1.961-1.535C141.092,84.231,140.439,84.47,139.905,84.919z
			 M135.938,101.103l4.529-12.443c0.42-1.154,0.683-1.645,0.816-1.855c-0.082,0.273-0.188,0.602-0.359,1.076l-4.457,12.244
			c-0.561,1.541-0.883,2.211-1.051,2.508C135.527,102.272,135.689,101.782,135.938,101.103z"/>
		<path fill="#FDB913" d="M153.753,81.46h5.72c3.812,0,6.348,0.127,7.606,0.377c1.259,0.252,2.124,0.895,2.601,1.928
			c0.475,1.033,0.301,2.682-0.523,4.943c-0.752,2.066-1.559,3.455-2.418,4.166c-0.861,0.711-2.201,1.137-4.02,1.279
			c1.477,0.34,2.387,0.795,2.73,1.363s0.496,1.092,0.457,1.568s-0.449,1.787-1.23,3.934l-2.553,7.014h-7.502l3.214-8.832
			c0.518-1.422,0.706-2.303,0.565-2.641c-0.141-0.34-0.771-0.51-1.891-0.51l-4.361,11.982h-8.066L153.753,81.46z M160.158,86.024
			l-2.137,5.867c0.916,0,1.594-0.104,2.039-0.316c0.443-0.211,0.877-0.898,1.3-2.062l0.528-1.451
			c0.305-0.836,0.326-1.385,0.068-1.645C161.697,86.155,161.098,86.024,160.158,86.024z"/>
		<path d="M153.753,80.319c-0.479,0-0.908,0.301-1.071,0.75l-9.671,26.572c-0.128,0.35-0.075,0.74,0.138,1.045
			s0.562,0.486,0.934,0.486h8.066c0.48,0,0.908-0.301,1.072-0.75c0,0,3.194-8.777,3.914-10.756c-0.08,0.287-0.188,0.639-0.372,1.145
			l-3.214,8.83c-0.046,0.127-0.068,0.258-0.068,0.391c0,0.23,0.07,0.459,0.205,0.654c0.215,0.305,0.562,0.486,0.936,0.486h7.502
			c0.48,0,0.908-0.301,1.072-0.752l2.553-7.014c1.084-2.977,1.262-3.822,1.295-4.229c0.007-0.078,0.01-0.158,0.01-0.24
			c0-0.645-0.209-1.32-0.625-2.01c-0.085-0.141-0.209-0.262-0.324-0.387c0.51-0.221,0.979-0.473,1.361-0.789
			c1.028-0.85,1.933-2.373,2.764-4.654c0.567-1.559,0.85-2.871,0.85-3.957c0-0.713-0.121-1.328-0.363-1.854
			c-0.625-1.359-1.805-2.248-3.412-2.568c-1.348-0.27-3.909-0.4-7.83-0.4H153.753z M159.473,82.601c3.717,0,6.201,0.119,7.383,0.355
			c0.898,0.18,1.467,0.588,1.787,1.285c0.078,0.172,0.156,0.455,0.156,0.906c0,0.65-0.162,1.652-0.715,3.172
			c-0.845,2.32-1.594,3.279-2.072,3.674c-0.673,0.557-1.811,0.9-3.382,1.021c-0.562,0.045-1.007,0.492-1.049,1.053
			c-0.003,0.029-0.003,0.059-0.003,0.086c0,0.527,0.363,0.992,0.885,1.111c1.725,0.398,2,0.824,2.012,0.842
			c0.194,0.324,0.297,0.611,0.297,0.832c0,0.018-0.002,0.035-0.002,0.053c-0.008,0.094-0.102,0.713-1.166,3.637
			c0,0-1.622,4.459-2.279,6.262c-0.965,0-3.35,0-5.074,0c0.762-2.092,2.656-7.299,2.656-7.299c0.503-1.381,0.684-2.191,0.684-2.746
			c0-0.299-0.053-0.523-0.135-0.723c-0.449-1.076-1.81-1.213-2.945-1.213c-0.479,0-0.908,0.299-1.072,0.75
			c0,0-3.607,9.912-4.088,11.23c-1.006,0-3.82,0-5.638,0c0.96-2.637,8.354-22.955,8.84-24.289
			C155.734,82.601,159.473,82.601,159.473,82.601z"/>
		<path d="M159.086,85.634l-2.136,5.869c-0.128,0.35-0.076,0.74,0.138,1.045c0.213,0.305,0.562,0.486,0.934,0.486
			c1.1,0,1.928-0.141,2.531-0.43c0.75-0.357,1.331-1.191,1.881-2.701l0.527-1.451c0.174-0.479,0.704-1.934-0.194-2.84
			c-0.501-0.504-1.306-0.729-2.608-0.729C159.679,84.884,159.25,85.183,159.086,85.634z M160.939,87.216c0.004,0,0.01,0,0.013,0.002
			c-0.024,0.111-0.062,0.25-0.136,0.453l-0.528,1.451c-0.124,0.344-0.233,0.592-0.332,0.793
			C160.43,88.616,160.707,87.853,160.939,87.216z"/>
		<path fill="#FDB913" d="M189.482,81.46l-1.943,5.338h-4.857l-7.728,21.234h-8.065l7.727-21.234h-4.77l1.942-5.338H189.482z"/>
		<path d="M171.788,80.319c-0.479,0-0.908,0.301-1.071,0.75l-1.943,5.34c-0.128,0.35-0.076,0.738,0.137,1.045
			c0.214,0.305,0.562,0.486,0.936,0.486c0,0,1.729,0,3.141,0c-0.959,2.637-7.17,19.701-7.17,19.701
			c-0.047,0.127-0.068,0.258-0.068,0.391c0,0.23,0.069,0.459,0.205,0.654c0.215,0.305,0.562,0.486,0.936,0.486h8.065
			c0.479,0,0.908-0.301,1.071-0.752c0,0,6.947-19.084,7.455-20.48c1.115,0,4.059,0,4.059,0c0.48,0,0.908-0.301,1.072-0.752
			l1.943-5.338c0.047-0.127,0.068-0.26,0.068-0.391c0-0.23-0.07-0.461-0.205-0.654c-0.215-0.305-0.562-0.486-0.936-0.486H171.788z
			 M187.854,82.601c-0.455,1.25-0.844,2.318-1.113,3.057c-1.115,0-4.059,0-4.059,0c-0.479,0-0.907,0.301-1.072,0.752
			c0,0-6.945,19.084-7.454,20.48c-1.006,0-3.82,0-5.638,0c0.959-2.635,7.17-19.701,7.17-19.701c0.046-0.127,0.068-0.258,0.068-0.391
			c0-0.23-0.07-0.459-0.205-0.654c-0.215-0.305-0.562-0.486-0.936-0.486c0,0-1.729,0-3.141,0c0.455-1.25,0.844-2.318,1.112-3.057
			C173.902,82.601,185.301,82.601,187.854,82.601z"/>
		<g>
			<path d="M190.851,84.094c0-2.165,1.738-3.913,3.912-3.913c2.165,0,3.913,1.748,3.913,3.913c0,2.164-1.748,3.912-3.913,3.912
				C192.589,88.006,190.851,86.258,190.851,84.094z M197.636,84.094c0-1.748-1.197-2.871-2.873-2.871
				c-1.706,0-2.871,1.123-2.871,2.871c0,1.749,1.165,2.871,2.871,2.871C196.438,86.965,197.636,85.843,197.636,84.094z
				 M196.71,86.216h-1.073l-0.937-1.779h-0.613v1.779h-0.936v-4.213h2.048c1.104,0,1.634,0.291,1.634,1.289
				c0,0.781-0.406,1.094-1.153,1.145L196.71,86.216z M195.21,83.708c0.365,0.011,0.636-0.104,0.636-0.529
				c0-0.49-0.542-0.447-0.844-0.447h-0.915v0.977H195.21z"/>
		</g>
	</g>
</g>
</svg>
